<?xml version="1.0" encoding="UTF-8" standalone="no"?>
<!-- Created with Digital by H.Neemann -->
<!-- created: Fri May 27 09:53:42 BST 2022 -->

<svg
   xmlns:svg="http://www.w3.org/2000/svg"
   xmlns="http://www.w3.org/2000/svg"
   width="95.4mm"
   height="59.85mm"
   viewBox="180 314 636 399">
<g stroke-linecap="square">
<path d="M 240,480 L 260,480" stroke="#0000b2" stroke-width="4.0" fill="none"/>
<path d="M 740,580 L 760,580" stroke="#0000b2" stroke-width="4.0" fill="none"/>
<path d="M 740,420 L 760,420" stroke="#0000b2" stroke-width="4.0" fill="none"/>
<path d="M 260,420 L 280,420" stroke="#0000b2" stroke-width="4.0" fill="none"/>
<path d="M 520,520 L 640,520 L 640,480 L 680,480" stroke="#0000b2" stroke-width="4.0" fill="none"/>
<path d="M 660,440 L 660,520 L 680,520" stroke="#0000b2" stroke-width="4.0" fill="none"/>
<path d="M 240,520 L 260,520" stroke="#0000b2" stroke-width="4.0" fill="none"/>
<path d="M 240,560 L 260,560" stroke="#0000b2" stroke-width="4.0" fill="none"/>
<path d="M 520,560 L 620,560 L 620,680 L 680,680" stroke="#0000b2" stroke-width="4.0" fill="none"/>
<path d="M 740,660 L 760,660" stroke="#0000b2" stroke-width="4.0" fill="none"/>
<path d="M 520,500 L 620,500 L 620,400 L 680,400" stroke="#0000b2" stroke-width="4.0" fill="none"/>
<path d="M 740,500 L 760,500" stroke="#0000b2" stroke-width="4.0" fill="none"/>
<path d="M 240,600 L 260,600" stroke="#0000b2" stroke-width="4.0" fill="none"/>
<path d="M 660,360 L 660,440 L 680,440" stroke="#0000b2" stroke-width="4.0" fill="none"/>
<path d="M 260,380 L 280,380" stroke="#0000b2" stroke-width="4.0" fill="none"/>
<path d="M 520,540 L 640,540 L 640,600 L 680,600" stroke="#0000b2" stroke-width="4.0" fill="none"/>
<path d="M 480,640 L 480,680" stroke="#0000b2" stroke-width="4.0" fill="none"/>
<path d="M 500,560 L 500,620" stroke="#0000b2" stroke-width="4.0" fill="none"/>
<path d="M 680,640 L 660,640 L 660,560 L 680,560" stroke="#0000b2" stroke-width="4.0" fill="none"/>
<path d="M 660,520 L 660,560" stroke="#0000b2" stroke-width="4.0" fill="none"/>
<path d="M 480,640 L 480,630 L 480,620" stroke="#000000" stroke-width="4.0" fill="none"/>
<path d="M 500,620 L 500,630" stroke="#000000" stroke-width="4.0" fill="none"/>
<g>
<circle cx="660.0" cy="520.0" r="4.0" stroke="#0000b2" stroke-width="4.0" fill="#0000b2" />
<circle cx="660.0" cy="560.0" r="4.0" stroke="#0000b2" stroke-width="4.0" fill="#0000b2" />
<circle cx="660.0" cy="440.0" r="4.0" stroke="#0000b2" stroke-width="4.0" fill="#0000b2" />
</g>
<g>
<text text-anchor="end" x="477.0" y="642.0" fill="#808080" style="font-size:12px" transform="rotate(-90,477.0,642.0)" >0-15</text>
<text text-anchor="start" x="477.0" y="618.0" fill="#808080" style="font-size:12px" transform="rotate(-90,477.0,618.0)" >0-13</text>
<text text-anchor="start" x="497.0" y="618.0" fill="#808080" style="font-size:12px" transform="rotate(-90,497.0,618.0)" >14,15</text>
<path d="M 478,632 L 478,628 L 502,628 L 502,632 Z" stroke="#000000" stroke-width="4.0" fill="#000000" fill-opacity="1.0"/>
<circle cx="480.0" cy="640.0" r="2.0" stroke="#0000b2" stroke-width="4.0" fill="#0000b2" />
<circle cx="480.0" cy="620.0" r="2.0" stroke="#b20000" stroke-width="4.0" fill="#b20000" />
<circle cx="500.0" cy="620.0" r="2.0" stroke="#b20000" stroke-width="4.0" fill="#b20000" />
</g>
<g>
<path d="M 481,505 L 519,496 L 519,564 L 481,555 Z" stroke="#000000" stroke-width="4.0" fill="none"/>
<text text-anchor="end" x="517.0" y="515.5" fill="#808080" style="font-size:18px">0</text>
<circle cx="500.0" cy="560.0" r="2.0" stroke="#0000b2" stroke-width="4.0" fill="#0000b2" />
<circle cx="520.0" cy="500.0" r="2.0" stroke="#b20000" stroke-width="4.0" fill="#b20000" />
<circle cx="520.0" cy="520.0" r="2.0" stroke="#b20000" stroke-width="4.0" fill="#b20000" />
<circle cx="520.0" cy="540.0" r="2.0" stroke="#b20000" stroke-width="4.0" fill="#b20000" />
<circle cx="520.0" cy="560.0" r="2.0" stroke="#b20000" stroke-width="4.0" fill="#b20000" />
</g>
<g>
<path d="M 710,450 L 681,450 L 681,390 L 710,390 C 720,390 740,400 739,420 C 739,440 720,450 710,450 Z" stroke="#000000" stroke-width="4.0" fill="none"/>
<circle cx="680.0" cy="400.0" r="2.0" stroke="#0000b2" stroke-width="4.0" fill="#0000b2" />
<circle cx="680.0" cy="440.0" r="2.0" stroke="#0000b2" stroke-width="4.0" fill="#0000b2" />
<circle cx="740.0" cy="420.0" r="2.0" stroke="#b20000" stroke-width="4.0" fill="#b20000" />
</g>
<g>
<path d="M 760,420 L 774,428 L 774,412 Z" stroke="#000000" stroke-width="4.0" fill="none"/>
<text text-anchor="start" x="779.0" y="426.75" fill="#808080" style="font-size:18px">CS0</text>
<circle cx="760.0" cy="420.0" r="2.0" stroke="#0000b2" stroke-width="4.0" fill="#0000b2" />
</g>
<g>
<path d="M 710,530 L 681,530 L 681,470 L 710,470 C 720,470 740,480 739,500 C 739,520 720,530 710,530 Z" stroke="#000000" stroke-width="4.0" fill="none"/>
<circle cx="680.0" cy="480.0" r="2.0" stroke="#0000b2" stroke-width="4.0" fill="#0000b2" />
<circle cx="680.0" cy="520.0" r="2.0" stroke="#0000b2" stroke-width="4.0" fill="#0000b2" />
<circle cx="740.0" cy="500.0" r="2.0" stroke="#b20000" stroke-width="4.0" fill="#b20000" />
</g>
<g>
<path d="M 710,610 L 681,610 L 681,550 L 710,550 C 720,550 740,560 739,580 C 739,600 720,610 710,610 Z" stroke="#000000" stroke-width="4.0" fill="none"/>
<circle cx="680.0" cy="560.0" r="2.0" stroke="#0000b2" stroke-width="4.0" fill="#0000b2" />
<circle cx="680.0" cy="600.0" r="2.0" stroke="#0000b2" stroke-width="4.0" fill="#0000b2" />
<circle cx="740.0" cy="580.0" r="2.0" stroke="#b20000" stroke-width="4.0" fill="#b20000" />
</g>
<g>
<path d="M 710,690 L 681,690 L 681,630 L 710,630 C 720,630 740,640 739,660 C 739,680 720,690 710,690 Z" stroke="#000000" stroke-width="4.0" fill="none"/>
<circle cx="680.0" cy="640.0" r="2.0" stroke="#0000b2" stroke-width="4.0" fill="#0000b2" />
<circle cx="680.0" cy="680.0" r="2.0" stroke="#0000b2" stroke-width="4.0" fill="#0000b2" />
<circle cx="740.0" cy="660.0" r="2.0" stroke="#b20000" stroke-width="4.0" fill="#b20000" />
</g>
<g>
<path d="M 760,500 L 774,508 L 774,492 Z" stroke="#000000" stroke-width="4.0" fill="none"/>
<text text-anchor="start" x="779.0" y="506.75" fill="#808080" style="font-size:18px">CS1</text>
<circle cx="760.0" cy="500.0" r="2.0" stroke="#0000b2" stroke-width="4.0" fill="#0000b2" />
</g>
<g>
<path d="M 760,580 L 774,588 L 774,572 Z" stroke="#000000" stroke-width="4.0" fill="none"/>
<text text-anchor="start" x="779.0" y="586.75" fill="#808080" style="font-size:18px">CS2</text>
<circle cx="760.0" cy="580.0" r="2.0" stroke="#0000b2" stroke-width="4.0" fill="#0000b2" />
</g>
<g>
<path d="M 760,660 L 774,668 L 774,652 Z" stroke="#000000" stroke-width="4.0" fill="none"/>
<text text-anchor="start" x="779.0" y="666.75" fill="#808080" style="font-size:18px">CS3</text>
<circle cx="760.0" cy="660.0" r="2.0" stroke="#0000b2" stroke-width="4.0" fill="#0000b2" />
</g>
<g>
<path d="M 480,680 L 472,694 L 488,694 Z" stroke="#000000" stroke-width="4.0" fill="none"/>
<text text-anchor="end" x="480.0" y="705.75" fill="#808080" style="font-size:18px" transform="rotate(-90,480.0,699.0)" >A</text>
<circle cx="480.0" cy="680.0" r="2.0" stroke="#0000b2" stroke-width="4.0" fill="#0000b2" />
</g>
<g>
<path d="M 229,365 L 259,365 L 259,395 L 229,395 Z" stroke="#000000" stroke-width="4.0" fill="none"/>
<circle cx="244.0" cy="380.0" r="9.0" stroke="#000000" stroke-width="4.0" fill="none" />
<text text-anchor="end" x="215.0" y="389.0" fill="#000000" style="font-size:24px"><tspan style="font-style:italic;">A</tspan></text>
<circle cx="260.0" cy="380.0" r="2.0" stroke="#b20000" stroke-width="4.0" fill="#b20000" />
</g>
<g>
<path d="M 280,380 L 294,388 L 294,372 Z" stroke="#000000" stroke-width="4.0" fill="none"/>
<text text-anchor="start" x="299.0" y="386.75" fill="#808080" style="font-size:18px">A</text>
<circle cx="280.0" cy="380.0" r="2.0" stroke="#0000b2" stroke-width="4.0" fill="#0000b2" />
</g>
<g>
<path d="M 229,405 L 259,405 L 259,435 L 229,435 Z" stroke="#000000" stroke-width="4.0" fill="none"/>
<circle cx="244.0" cy="420.0" r="9.0" stroke="#000000" stroke-width="4.0" fill="none" />
<text text-anchor="end" x="215.0" y="429.0" fill="#000000" style="font-size:24px"><tspan style="font-style:italic;">CS</tspan></text>
<circle cx="260.0" cy="420.0" r="2.0" stroke="#b20000" stroke-width="4.0" fill="#b20000" />
</g>
<g>
<path d="M 660,360 L 668,346 L 652,346 Z" stroke="#000000" stroke-width="4.0" fill="none"/>
<text text-anchor="start" x="660.0" y="347.75" fill="#808080" style="font-size:18px" transform="rotate(-90,660.0,341.0)" >CS</text>
<circle cx="660.0" cy="360.0" r="2.0" stroke="#0000b2" stroke-width="4.0" fill="#0000b2" />
</g>
<g>
<path d="M 280,420 L 294,428 L 294,412 Z" stroke="#000000" stroke-width="4.0" fill="none"/>
<text text-anchor="start" x="299.0" y="426.75" fill="#808080" style="font-size:18px">CS</text>
<circle cx="280.0" cy="420.0" r="2.0" stroke="#0000b2" stroke-width="4.0" fill="#0000b2" />
</g>
<g>
<path d="M 240,480 L 226,472 L 226,488 Z" stroke="#000000" stroke-width="4.0" fill="none"/>
<text text-anchor="end" x="221.0" y="486.75" fill="#808080" style="font-size:18px">CS0</text>
<circle cx="240.0" cy="480.0" r="2.0" stroke="#0000b2" stroke-width="4.0" fill="#0000b2" />
</g>
<g>
<path d="M 240,520 L 226,512 L 226,528 Z" stroke="#000000" stroke-width="4.0" fill="none"/>
<text text-anchor="end" x="221.0" y="526.75" fill="#808080" style="font-size:18px">CS1</text>
<circle cx="240.0" cy="520.0" r="2.0" stroke="#0000b2" stroke-width="4.0" fill="#0000b2" />
</g>
<g>
<path d="M 240,560 L 226,552 L 226,568 Z" stroke="#000000" stroke-width="4.0" fill="none"/>
<text text-anchor="end" x="221.0" y="566.75" fill="#808080" style="font-size:18px">CS2</text>
<circle cx="240.0" cy="560.0" r="2.0" stroke="#0000b2" stroke-width="4.0" fill="#0000b2" />
</g>
<g>
<path d="M 240,600 L 226,592 L 226,608 Z" stroke="#000000" stroke-width="4.0" fill="none"/>
<text text-anchor="end" x="221.0" y="606.75" fill="#808080" style="font-size:18px">CS3</text>
<circle cx="240.0" cy="600.0" r="2.0" stroke="#0000b2" stroke-width="4.0" fill="#0000b2" />
</g>
<g>
<circle cx="276.0" cy="480.0" r="9.0" stroke="#000000" stroke-width="4.0" fill="none" />
<circle cx="276.0" cy="480.0" r="15.0" stroke="#000000" stroke-width="4.0" fill="none" />
<text text-anchor="start" x="305.0" y="489.0" fill="#000000" style="font-size:24px"><tspan style="font-style:italic;">CS0</tspan></text>
<circle cx="260.0" cy="480.0" r="2.0" stroke="#0000b2" stroke-width="4.0" fill="#0000b2" />
</g>
<g>
<circle cx="276.0" cy="520.0" r="9.0" stroke="#000000" stroke-width="4.0" fill="none" />
<circle cx="276.0" cy="520.0" r="15.0" stroke="#000000" stroke-width="4.0" fill="none" />
<text text-anchor="start" x="305.0" y="529.0" fill="#000000" style="font-size:24px"><tspan style="font-style:italic;">CS1</tspan></text>
<circle cx="260.0" cy="520.0" r="2.0" stroke="#0000b2" stroke-width="4.0" fill="#0000b2" />
</g>
<g>
<circle cx="276.0" cy="560.0" r="9.0" stroke="#000000" stroke-width="4.0" fill="none" />
<circle cx="276.0" cy="560.0" r="15.0" stroke="#000000" stroke-width="4.0" fill="none" />
<text text-anchor="start" x="305.0" y="569.0" fill="#000000" style="font-size:24px"><tspan style="font-style:italic;">CS2</tspan></text>
<circle cx="260.0" cy="560.0" r="2.0" stroke="#0000b2" stroke-width="4.0" fill="#0000b2" />
</g>
<g>
<circle cx="276.0" cy="600.0" r="9.0" stroke="#000000" stroke-width="4.0" fill="none" />
<circle cx="276.0" cy="600.0" r="15.0" stroke="#000000" stroke-width="4.0" fill="none" />
<text text-anchor="start" x="305.0" y="609.0" fill="#000000" style="font-size:24px"><tspan style="font-style:italic;">CS3</tspan></text>
<circle cx="260.0" cy="600.0" r="2.0" stroke="#0000b2" stroke-width="4.0" fill="#0000b2" />
</g>
</g>
</svg>