<?xml version="1.0" encoding="UTF-8" standalone="no"?>
<!-- Created with Digital by H.Neemann -->
<!-- created: Sun Jun 05 12:50:05 BST 2022 -->

<svg
   xmlns:svg="http://www.w3.org/2000/svg"
   xmlns="http://www.w3.org/2000/svg"
   width="73.8mm"
   height="56.7mm"
   viewBox="-236 194 492 378">
<g stroke-linecap="square">
<path d="M -180,320 L -160,320" stroke="#0000b2" stroke-width="2.8" fill="none"/>
<path d="M 100,240 L 100,320 L 120,320" stroke="#0000b2" stroke-width="2.8" fill="none"/>
<path d="M 40,420 L 80,420 L 80,480 L 120,480" stroke="#0000b2" stroke-width="2.8" fill="none"/>
<path d="M -160,260 L -140,260" stroke="#0000b2" stroke-width="2.8" fill="none"/>
<path d="M -180,360 L -160,360" stroke="#0000b2" stroke-width="2.8" fill="none"/>
<path d="M 180,460 L 200,460" stroke="#0000b2" stroke-width="2.8" fill="none"/>
<path d="M 180,300 L 200,300" stroke="#0000b2" stroke-width="2.8" fill="none"/>
<path d="M 40,400 L 80,400 L 80,360 L 120,360" stroke="#0000b2" stroke-width="2.8" fill="none"/>
<path d="M 100,320 L 100,400 L 120,400" stroke="#0000b2" stroke-width="2.8" fill="none"/>
<path d="M -180,340 L -160,340" stroke="#0000b2" stroke-width="2.8" fill="none"/>
<path d="M -160,280 L -140,280" stroke="#0000b2" stroke-width="2.8" fill="none"/>
<path d="M 40,440 L 60,440 L 60,560 L 120,560" stroke="#0000b2" stroke-width="2.8" fill="none"/>
<path d="M 40,380 L 60,380 L 60,280 L 120,280" stroke="#0000b2" stroke-width="2.8" fill="none"/>
<path d="M 180,380 L 200,380" stroke="#0000b2" stroke-width="2.8" fill="none"/>
<path d="M -180,380 L -160,380" stroke="#0000b2" stroke-width="2.8" fill="none"/>
<path d="M 180,540 L 200,540" stroke="#0000b2" stroke-width="2.8" fill="none"/>
<path d="M 0,500 L 0,540" stroke="#0000b2" stroke-width="2.8" fill="none"/>
<path d="M 20,440 L 20,480" stroke="#0000b2" stroke-width="2.8" fill="none"/>
<path d="M 120,520 L 100,520 L 100,440 L 120,440" stroke="#0000b2" stroke-width="2.8" fill="none"/>
<path d="M 100,400 L 100,440" stroke="#0000b2" stroke-width="2.8" fill="none"/>
<path d="M 0,500 L 0,490 L 0,480" stroke="#000000" stroke-width="2.8" fill="none"/>
<path d="M 20,480 L 20,490" stroke="#000000" stroke-width="2.8" fill="none"/>
<g>
<circle cx="100.0" cy="320.0" r="4.0" stroke="#0000b2" stroke-width="2.8" fill="#0000b2" />
<circle cx="100.0" cy="400.0" r="4.0" stroke="#0000b2" stroke-width="2.8" fill="#0000b2" />
<circle cx="100.0" cy="440.0" r="4.0" stroke="#0000b2" stroke-width="2.8" fill="#0000b2" />
</g>
<g>
<text text-anchor="end" x="-3.0" y="502.0" fill="#808080" style="font-size:12px" transform="rotate(-90,-3.0,502.0)" >0-15</text>
<text text-anchor="start" x="-3.0" y="478.0" fill="#808080" style="font-size:12px" transform="rotate(-90,-3.0,478.0)" >0-13</text>
<text text-anchor="start" x="17.0" y="478.0" fill="#808080" style="font-size:12px" transform="rotate(-90,17.0,478.0)" >14,15</text>
<path d="M -2,492 L -2,488 L 22,488 L 22,492 Z" stroke="#000000" stroke-width="2.8" fill="#000000" fill-opacity="1.0"/>
<circle cx="0.0" cy="500.0" r="2.0" stroke="#0000b2" stroke-width="2.8" fill="#0000b2" />
<circle cx="0.0" cy="480.0" r="2.0" stroke="#b20000" stroke-width="2.8" fill="#b20000" />
<circle cx="20.0" cy="480.0" r="2.0" stroke="#b20000" stroke-width="2.8" fill="#b20000" />
</g>
<g>
<path d="M 1,385 L 39,376 L 39,444 L 1,435 Z" stroke="#000000" stroke-width="2.8" fill="none"/>
<text text-anchor="end" x="37.0" y="395.5" fill="#808080" style="font-size:18px">0</text>
<circle cx="20.0" cy="440.0" r="2.0" stroke="#0000b2" stroke-width="2.8" fill="#0000b2" />
<circle cx="40.0" cy="380.0" r="2.0" stroke="#b20000" stroke-width="2.8" fill="#b20000" />
<circle cx="40.0" cy="400.0" r="2.0" stroke="#b20000" stroke-width="2.8" fill="#b20000" />
<circle cx="40.0" cy="420.0" r="2.0" stroke="#b20000" stroke-width="2.8" fill="#b20000" />
<circle cx="40.0" cy="440.0" r="2.0" stroke="#b20000" stroke-width="2.8" fill="#b20000" />
</g>
<g>
<path d="M 150,330 L 121,330 L 121,270 L 150,270 C 160,270 180,280 179,300 C 179,320 160,330 150,330 Z" stroke="#000000" stroke-width="2.8" fill="none"/>
<circle cx="120.0" cy="280.0" r="2.0" stroke="#0000b2" stroke-width="2.8" fill="#0000b2" />
<circle cx="120.0" cy="320.0" r="2.0" stroke="#0000b2" stroke-width="2.8" fill="#0000b2" />
<circle cx="180.0" cy="300.0" r="2.0" stroke="#b20000" stroke-width="2.8" fill="#b20000" />
</g>
<g>
<path d="M 200,300 L 214,308 L 214,292 Z" stroke="#000000" stroke-width="2.8" fill="none"/>
<text text-anchor="start" x="219.0" y="306.75" fill="#808080" style="font-size:18px">CS0</text>
<circle cx="200.0" cy="300.0" r="2.0" stroke="#0000b2" stroke-width="2.8" fill="#0000b2" />
</g>
<g>
<path d="M 150,410 L 121,410 L 121,350 L 150,350 C 160,350 180,360 179,380 C 179,400 160,410 150,410 Z" stroke="#000000" stroke-width="2.8" fill="none"/>
<circle cx="120.0" cy="360.0" r="2.0" stroke="#0000b2" stroke-width="2.8" fill="#0000b2" />
<circle cx="120.0" cy="400.0" r="2.0" stroke="#0000b2" stroke-width="2.8" fill="#0000b2" />
<circle cx="180.0" cy="380.0" r="2.0" stroke="#b20000" stroke-width="2.8" fill="#b20000" />
</g>
<g>
<path d="M 150,490 L 121,490 L 121,430 L 150,430 C 160,430 180,440 179,460 C 179,480 160,490 150,490 Z" stroke="#000000" stroke-width="2.8" fill="none"/>
<circle cx="120.0" cy="440.0" r="2.0" stroke="#0000b2" stroke-width="2.8" fill="#0000b2" />
<circle cx="120.0" cy="480.0" r="2.0" stroke="#0000b2" stroke-width="2.8" fill="#0000b2" />
<circle cx="180.0" cy="460.0" r="2.0" stroke="#b20000" stroke-width="2.8" fill="#b20000" />
</g>
<g>
<path d="M 150,570 L 121,570 L 121,510 L 150,510 C 160,510 180,520 179,540 C 179,560 160,570 150,570 Z" stroke="#000000" stroke-width="2.8" fill="none"/>
<circle cx="120.0" cy="520.0" r="2.0" stroke="#0000b2" stroke-width="2.8" fill="#0000b2" />
<circle cx="120.0" cy="560.0" r="2.0" stroke="#0000b2" stroke-width="2.8" fill="#0000b2" />
<circle cx="180.0" cy="540.0" r="2.0" stroke="#b20000" stroke-width="2.8" fill="#b20000" />
</g>
<g>
<path d="M 200,380 L 214,388 L 214,372 Z" stroke="#000000" stroke-width="2.8" fill="none"/>
<text text-anchor="start" x="219.0" y="386.75" fill="#808080" style="font-size:18px">CS1</text>
<circle cx="200.0" cy="380.0" r="2.0" stroke="#0000b2" stroke-width="2.8" fill="#0000b2" />
</g>
<g>
<path d="M 200,460 L 214,468 L 214,452 Z" stroke="#000000" stroke-width="2.8" fill="none"/>
<text text-anchor="start" x="219.0" y="466.75" fill="#808080" style="font-size:18px">CS2</text>
<circle cx="200.0" cy="460.0" r="2.0" stroke="#0000b2" stroke-width="2.8" fill="#0000b2" />
</g>
<g>
<path d="M 200,540 L 214,548 L 214,532 Z" stroke="#000000" stroke-width="2.8" fill="none"/>
<text text-anchor="start" x="219.0" y="546.75" fill="#808080" style="font-size:18px">CS3</text>
<circle cx="200.0" cy="540.0" r="2.0" stroke="#0000b2" stroke-width="2.8" fill="#0000b2" />
</g>
<g>
<path d="M 0,540 L -8,554 L 8,554 Z" stroke="#000000" stroke-width="2.8" fill="none"/>
<text text-anchor="end" x="0.0" y="565.75" fill="#808080" style="font-size:18px" transform="rotate(-90,0.0,559.0)" >A</text>
<circle cx="0.0" cy="540.0" r="2.0" stroke="#0000b2" stroke-width="2.8" fill="#0000b2" />
</g>
<g>
<path d="M -181,250 L -161,250 L -161,270 L -181,270 Z" stroke="#000000" stroke-width="2.8" fill="none"/>
<circle cx="-171.0" cy="260.0" r="4.0" stroke="#000000" stroke-width="1.4" fill="none" />
<text text-anchor="end" x="-190.0" y="269.0" fill="#000000" style="font-size:24px"><tspan style="font-style:italic;">A</tspan></text>
<circle cx="-160.0" cy="260.0" r="2.0" stroke="#b20000" stroke-width="2.8" fill="#b20000" />
</g>
<g>
<path d="M -140,260 L -126,268 L -126,252 Z" stroke="#000000" stroke-width="2.8" fill="none"/>
<text text-anchor="start" x="-121.0" y="266.75" fill="#808080" style="font-size:18px">A</text>
<circle cx="-140.0" cy="260.0" r="2.0" stroke="#0000b2" stroke-width="2.8" fill="#0000b2" />
</g>
<g>
<path d="M -181,270 L -161,270 L -161,290 L -181,290 Z" stroke="#000000" stroke-width="2.8" fill="none"/>
<circle cx="-171.0" cy="280.0" r="4.0" stroke="#000000" stroke-width="1.4" fill="none" />
<text text-anchor="end" x="-190.0" y="289.0" fill="#000000" style="font-size:24px"><tspan style="font-style:italic;">CS</tspan></text>
<circle cx="-160.0" cy="280.0" r="2.0" stroke="#b20000" stroke-width="2.8" fill="#b20000" />
</g>
<g>
<path d="M 100,240 L 108,226 L 92,226 Z" stroke="#000000" stroke-width="2.8" fill="none"/>
<text text-anchor="start" x="100.0" y="227.75" fill="#808080" style="font-size:18px" transform="rotate(-90,100.0,221.0)" >CS</text>
<circle cx="100.0" cy="240.0" r="2.0" stroke="#0000b2" stroke-width="2.8" fill="#0000b2" />
</g>
<g>
<path d="M -140,280 L -126,288 L -126,272 Z" stroke="#000000" stroke-width="2.8" fill="none"/>
<text text-anchor="start" x="-121.0" y="286.75" fill="#808080" style="font-size:18px">CS</text>
<circle cx="-140.0" cy="280.0" r="2.0" stroke="#0000b2" stroke-width="2.8" fill="#0000b2" />
</g>
<g>
<path d="M -180,320 L -194,312 L -194,328 Z" stroke="#000000" stroke-width="2.8" fill="none"/>
<text text-anchor="end" x="-199.0" y="326.75" fill="#808080" style="font-size:18px">CS0</text>
<circle cx="-180.0" cy="320.0" r="2.0" stroke="#0000b2" stroke-width="2.8" fill="#0000b2" />
</g>
<g>
<path d="M -180,340 L -194,332 L -194,348 Z" stroke="#000000" stroke-width="2.8" fill="none"/>
<text text-anchor="end" x="-199.0" y="346.75" fill="#808080" style="font-size:18px">CS1</text>
<circle cx="-180.0" cy="340.0" r="2.0" stroke="#0000b2" stroke-width="2.8" fill="#0000b2" />
</g>
<g>
<path d="M -180,360 L -194,352 L -194,368 Z" stroke="#000000" stroke-width="2.8" fill="none"/>
<text text-anchor="end" x="-199.0" y="366.75" fill="#808080" style="font-size:18px">CS2</text>
<circle cx="-180.0" cy="360.0" r="2.0" stroke="#0000b2" stroke-width="2.8" fill="#0000b2" />
</g>
<g>
<path d="M -180,380 L -194,372 L -194,388 Z" stroke="#000000" stroke-width="2.8" fill="none"/>
<text text-anchor="end" x="-199.0" y="386.75" fill="#808080" style="font-size:18px">CS3</text>
<circle cx="-180.0" cy="380.0" r="2.0" stroke="#0000b2" stroke-width="2.8" fill="#0000b2" />
</g>
<g>
<circle cx="-149.0" cy="320.0" r="4.0" stroke="#000000" stroke-width="1.4" fill="none" />
<circle cx="-149.0" cy="320.0" r="10.0" stroke="#000000" stroke-width="2.8" fill="none" />
<text text-anchor="start" x="-130.0" y="329.0" fill="#000000" style="font-size:24px"><tspan style="font-style:italic;">CS0</tspan></text>
<circle cx="-160.0" cy="320.0" r="2.0" stroke="#0000b2" stroke-width="2.8" fill="#0000b2" />
</g>
<g>
<circle cx="-149.0" cy="340.0" r="4.0" stroke="#000000" stroke-width="1.4" fill="none" />
<circle cx="-149.0" cy="340.0" r="10.0" stroke="#000000" stroke-width="2.8" fill="none" />
<text text-anchor="start" x="-130.0" y="349.0" fill="#000000" style="font-size:24px"><tspan style="font-style:italic;">CS1</tspan></text>
<circle cx="-160.0" cy="340.0" r="2.0" stroke="#0000b2" stroke-width="2.8" fill="#0000b2" />
</g>
<g>
<circle cx="-149.0" cy="360.0" r="4.0" stroke="#000000" stroke-width="1.4" fill="none" />
<circle cx="-149.0" cy="360.0" r="10.0" stroke="#000000" stroke-width="2.8" fill="none" />
<text text-anchor="start" x="-130.0" y="369.0" fill="#000000" style="font-size:24px"><tspan style="font-style:italic;">CS2</tspan></text>
<circle cx="-160.0" cy="360.0" r="2.0" stroke="#0000b2" stroke-width="2.8" fill="#0000b2" />
</g>
<g>
<circle cx="-149.0" cy="380.0" r="4.0" stroke="#000000" stroke-width="1.4" fill="none" />
<circle cx="-149.0" cy="380.0" r="10.0" stroke="#000000" stroke-width="2.8" fill="none" />
<text text-anchor="start" x="-130.0" y="389.0" fill="#000000" style="font-size:24px"><tspan style="font-style:italic;">CS3</tspan></text>
<circle cx="-160.0" cy="380.0" r="2.0" stroke="#0000b2" stroke-width="2.8" fill="#0000b2" />
</g>
<g>
<text text-anchor="start" x="-220.0" y="450.5" fill="#000000" style="font-size:14px">Banks</text>
<text text-anchor="start" x="-220.0" y="484.5" fill="#000000" style="font-size:14px">0xC000...0xFFFF - Bank 3</text>
<text text-anchor="start" x="-220.0" y="501.5" fill="#000000" style="font-size:14px">0x8000...0xBFFF - Bank 2</text>
<text text-anchor="start" x="-220.0" y="518.5" fill="#000000" style="font-size:14px">0x4000...0x7FFF - Bank 1</text>
<text text-anchor="start" x="-220.0" y="535.5" fill="#000000" style="font-size:14px">0x0000...0x3FFF - Bank 0</text>
</g>
</g>
</svg>