<?xml version="1.0" encoding="UTF-8" standalone="no"?>
<!-- Created with Digital by H.Neemann -->
<!-- created: Tue May 31 20:01:44 BST 2022 -->

<svg
   xmlns:svg="http://www.w3.org/2000/svg"
   xmlns="http://www.w3.org/2000/svg"
   width="131.55mm"
   height="37.8mm"
   viewBox="142 86 877 252">
<g stroke-linecap="square">
<path d="M 900,160 L 920,160" stroke="#0000b2" stroke-width="2.8" fill="none"/>
<path d="M 360,240 L 380,240" stroke="#0000b2" stroke-width="2.8" fill="none"/>
<path d="M 900,260 L 920,260" stroke="#0000b2" stroke-width="2.8" fill="none"/>
<path d="M 360,180 L 380,180" stroke="#0000b2" stroke-width="2.8" fill="none"/>
<path d="M 360,120 L 380,120" stroke="#0000b2" stroke-width="2.8" fill="none"/>
<path d="M 800,120 L 840,120 L 840,140" stroke="#0000b2" stroke-width="2.8" fill="none"/>
<path d="M 900,120 L 920,120" stroke="#0000b2" stroke-width="2.8" fill="none"/>
<path d="M 800,280 L 840,280" stroke="#0000b2" stroke-width="2.8" fill="none"/>
<path d="M 900,300 L 920,300" stroke="#0000b2" stroke-width="2.8" fill="none"/>
<path d="M 926,120 L 920,120" stroke="#000000" stroke-width="2.8" fill="none"/>
<path d="M 926,260 L 920,260" stroke="#000000" stroke-width="2.8" fill="none"/>
<g>
</g>
<g>
<path d="M 899,170 L 841,170 L 841,110 L 899,110 Z" stroke="#000000" stroke-width="2.8" fill="none"/>
<text text-anchor="middle" x="870.0" y="196.0" fill="#000000" style="font-size:24px">p1 (Mode)</text>
<text text-anchor="end" x="896.0" y="166.75" fill="#808080" style="font-size:18px">A</text>
<text text-anchor="end" x="896.0" y="126.75" fill="#808080" style="font-size:18px">sel</text>
<text text-anchor="start" x="844.0" y="146.75" fill="#808080" style="font-size:18px">D</text>
<text text-anchor="middle" x="870.0" y="106.0" fill="#808080" style="font-size:18px">ROM</text>
<circle cx="900.0" cy="160.0" r="2.0" stroke="#0000b2" stroke-width="2.8" fill="#0000b2" />
<circle cx="900.0" cy="120.0" r="2.0" stroke="#0000b2" stroke-width="2.8" fill="#0000b2" />
<circle cx="840.0" cy="140.0" r="2.0" stroke="#b20000" stroke-width="2.8" fill="#b20000" />
</g>
<g>
<path d="M 899,310 L 841,310 L 841,250 L 899,250 Z" stroke="#000000" stroke-width="2.8" fill="none"/>
<text text-anchor="middle" x="870.0" y="336.0" fill="#000000" style="font-size:24px">p2 (OpCode)</text>
<text text-anchor="end" x="896.0" y="306.75" fill="#808080" style="font-size:18px">A</text>
<text text-anchor="end" x="896.0" y="266.75" fill="#808080" style="font-size:18px">sel</text>
<text text-anchor="start" x="844.0" y="286.75" fill="#808080" style="font-size:18px">D</text>
<text text-anchor="middle" x="870.0" y="246.0" fill="#808080" style="font-size:18px">ROM</text>
<circle cx="900.0" cy="300.0" r="2.0" stroke="#0000b2" stroke-width="2.8" fill="#0000b2" />
<circle cx="900.0" cy="260.0" r="2.0" stroke="#0000b2" stroke-width="2.8" fill="#0000b2" />
<circle cx="840.0" cy="280.0" r="2.0" stroke="#b20000" stroke-width="2.8" fill="#b20000" />
</g>
<g>
<path d="M 916,110 L 929,120 L 916,130" stroke="#000000" stroke-width="2.8" fill="none"/>
<circle cx="920.0" cy="120.0" r="2.0" stroke="#b20000" stroke-width="2.8" fill="#b20000" />
</g>
<g>
<path d="M 916,250 L 929,260 L 916,270" stroke="#000000" stroke-width="2.8" fill="none"/>
<circle cx="920.0" cy="260.0" r="2.0" stroke="#b20000" stroke-width="2.8" fill="#b20000" />
</g>
<g>
<path d="M 920,160 L 934,168 L 934,152 Z" stroke="#000000" stroke-width="2.8" fill="none"/>
<text text-anchor="start" x="939.0" y="166.75" fill="#808080" style="font-size:18px">OPCODE</text>
<circle cx="920.0" cy="160.0" r="2.0" stroke="#0000b2" stroke-width="2.8" fill="#0000b2" />
</g>
<g>
<path d="M 920,300 L 934,308 L 934,292 Z" stroke="#000000" stroke-width="2.8" fill="none"/>
<text text-anchor="start" x="939.0" y="306.75" fill="#808080" style="font-size:18px">OPCODE</text>
<circle cx="920.0" cy="300.0" r="2.0" stroke="#0000b2" stroke-width="2.8" fill="#0000b2" />
</g>
<g>
<path d="M 800,120 L 786,112 L 786,128 Z" stroke="#000000" stroke-width="2.8" fill="none"/>
<text text-anchor="end" x="781.0" y="126.75" fill="#808080" style="font-size:18px">MODEADDR</text>
<circle cx="800.0" cy="120.0" r="2.0" stroke="#0000b2" stroke-width="2.8" fill="#0000b2" />
</g>
<g>
<path d="M 800,280 L 786,272 L 786,288 Z" stroke="#000000" stroke-width="2.8" fill="none"/>
<text text-anchor="end" x="781.0" y="286.75" fill="#808080" style="font-size:18px">OPCODEADDR</text>
<circle cx="800.0" cy="280.0" r="2.0" stroke="#0000b2" stroke-width="2.8" fill="#0000b2" />
</g>
<g>
<path d="M 329,105 L 359,105 L 359,135 L 329,135 Z" stroke="#000000" stroke-width="2.8" fill="none"/>
<circle cx="344.0" cy="120.0" r="9.0" stroke="#000000" stroke-width="2.8" fill="none" />
<text text-anchor="end" x="315.0" y="129.0" fill="#000000" style="font-size:24px"><tspan style="font-style:italic;">OPCODE</tspan></text>
<circle cx="360.0" cy="120.0" r="2.0" stroke="#b20000" stroke-width="2.8" fill="#b20000" />
</g>
<g>
<path d="M 380,120 L 394,128 L 394,112 Z" stroke="#000000" stroke-width="2.8" fill="none"/>
<text text-anchor="start" x="399.0" y="126.75" fill="#808080" style="font-size:18px">OPCODE</text>
<circle cx="380.0" cy="120.0" r="2.0" stroke="#0000b2" stroke-width="2.8" fill="#0000b2" />
</g>
<g>
<circle cx="344.0" cy="180.0" r="9.0" stroke="#000000" stroke-width="2.8" fill="none" />
<circle cx="344.0" cy="180.0" r="15.0" stroke="#000000" stroke-width="2.8" fill="none" />
<text text-anchor="end" x="315.0" y="189.0" fill="#000000" style="font-size:24px"><tspan style="font-style:italic;">MODEADDR</tspan></text>
<circle cx="360.0" cy="180.0" r="2.0" stroke="#0000b2" stroke-width="2.8" fill="#0000b2" />
</g>
<g>
<path d="M 380,180 L 394,188 L 394,172 Z" stroke="#000000" stroke-width="2.8" fill="none"/>
<text text-anchor="start" x="399.0" y="186.75" fill="#808080" style="font-size:18px">MODEADDR</text>
<circle cx="380.0" cy="180.0" r="2.0" stroke="#0000b2" stroke-width="2.8" fill="#0000b2" />
</g>
<g>
<circle cx="344.0" cy="240.0" r="9.0" stroke="#000000" stroke-width="2.8" fill="none" />
<circle cx="344.0" cy="240.0" r="15.0" stroke="#000000" stroke-width="2.8" fill="none" />
<text text-anchor="end" x="315.0" y="249.0" fill="#000000" style="font-size:24px"><tspan style="font-style:italic;">OPCODEADDR</tspan></text>
<circle cx="360.0" cy="240.0" r="2.0" stroke="#0000b2" stroke-width="2.8" fill="#0000b2" />
</g>
<g>
<path d="M 380,240 L 394,248 L 394,232 Z" stroke="#000000" stroke-width="2.8" fill="none"/>
<text text-anchor="start" x="399.0" y="246.75" fill="#808080" style="font-size:18px">OPCODEADDR</text>
<circle cx="380.0" cy="240.0" r="2.0" stroke="#0000b2" stroke-width="2.8" fill="#0000b2" />
</g>
</g>
</svg>