<?xml version="1.0" encoding="UTF-8" standalone="no"?>
<!-- Created with Digital by H.Neemann -->
<!-- created: Sat Jun 04 10:46:27 BST 2022 -->

<svg
   xmlns:svg="http://www.w3.org/2000/svg"
   xmlns="http://www.w3.org/2000/svg"
   width="194.4mm"
   height="73.2mm"
   viewBox="118 6 1296 488">
<g stroke-linecap="square">
<path d="M 780,140 L 780,320 L 900,320" stroke="#0000b2" stroke-width="2.8" fill="none"/>
<path d="M 1120,240 L 1120,320 L 1320,320 L 1320,340" stroke="#0000b2" stroke-width="2.8" fill="none"/>
<path d="M 1020,320 L 1060,320 L 1060,160 L 1100,160" stroke="#0000b2" stroke-width="2.8" fill="none"/>
<path d="M 320,320 L 340,320" stroke="#0000b2" stroke-width="2.8" fill="none"/>
<path d="M 560,160 L 580,160" stroke="#0000b2" stroke-width="2.8" fill="none"/>
<path d="M 360,160 L 380,160" stroke="#0000b2" stroke-width="2.8" fill="none"/>
<path d="M 1160,180 L 1160,160 L 1260,160 L 1380,160" stroke="#0000b2" stroke-width="2.8" fill="none"/>
<path d="M 1180,260 L 1200,260" stroke="#0000b2" stroke-width="2.8" fill="none"/>
<path d="M 560,260 L 580,260" stroke="#0000b2" stroke-width="2.8" fill="none"/>
<path d="M 320,260 L 340,260" stroke="#0000b2" stroke-width="2.8" fill="none"/>
<path d="M 1280,260 L 1300,260" stroke="#0000b2" stroke-width="2.8" fill="none"/>
<path d="M 1360,260 L 1380,260" stroke="#0000b2" stroke-width="2.8" fill="none"/>
<path d="M 560,420 L 580,420" stroke="#0000b2" stroke-width="2.8" fill="none"/>
<path d="M 680,140 L 680,100 L 700,100" stroke="#0000b2" stroke-width="2.8" fill="none"/>
<path d="M 360,100 L 380,100" stroke="#0000b2" stroke-width="2.8" fill="none"/>
<path d="M 1200,200 L 1380,200" stroke="#0000b2" stroke-width="2.8" fill="none"/>
<path d="M 320,200 L 340,200" stroke="#0000b2" stroke-width="2.8" fill="none"/>
<path d="M 660,360 L 900,360" stroke="#0000b2" stroke-width="2.8" fill="none"/>
<path d="M 560,360 L 640,360" stroke="#0000b2" stroke-width="2.8" fill="none"/>
<path d="M 1340,360 L 1380,360" stroke="#0000b2" stroke-width="2.8" fill="none"/>
<path d="M 1020,360 L 1060,360 L 1060,420 L 1300,420" stroke="#0000b2" stroke-width="2.8" fill="none"/>
<path d="M 360,40 L 380,40" stroke="#0000b2" stroke-width="2.8" fill="none"/>
<path d="M 360,140 L 380,140" stroke="#0000b2" stroke-width="2.8" fill="none"/>
<path d="M 1020,140 L 1040,140 L 1040,460 L 1300,460" stroke="#0000b2" stroke-width="2.8" fill="none"/>
<path d="M 640,140 L 680,140 L 780,140 L 780,120 L 900,120" stroke="#0000b2" stroke-width="2.8" fill="none"/>
<path d="M 560,140 L 580,140" stroke="#0000b2" stroke-width="2.8" fill="none"/>
<path d="M 560,460 L 580,460" stroke="#0000b2" stroke-width="2.8" fill="none"/>
<path d="M 320,300 L 340,300" stroke="#0000b2" stroke-width="2.8" fill="none"/>
<path d="M 560,300 L 580,300" stroke="#0000b2" stroke-width="2.8" fill="none"/>
<path d="M 1260,160 L 1260,240 L 1300,240" stroke="#0000b2" stroke-width="2.8" fill="none"/>
<path d="M 320,240 L 340,240" stroke="#0000b2" stroke-width="2.8" fill="none"/>
<path d="M 680,280 L 680,240 L 700,240" stroke="#0000b2" stroke-width="2.8" fill="none"/>
<path d="M 1120,200 L 1120,240 L 1160,240" stroke="#0000b2" stroke-width="2.8" fill="none"/>
<path d="M 360,80 L 380,80" stroke="#0000b2" stroke-width="2.8" fill="none"/>
<path d="M 820,80 L 840,80 L 840,140 L 900,140" stroke="#0000b2" stroke-width="2.8" fill="none"/>
<path d="M 1120,320 L 1120,400 L 1320,400 L 1320,420" stroke="#0000b2" stroke-width="2.8" fill="none"/>
<path d="M 680,440 L 680,400 L 700,400" stroke="#0000b2" stroke-width="2.8" fill="none"/>
<path d="M 320,340 L 340,340" stroke="#0000b2" stroke-width="2.8" fill="none"/>
<path d="M 1020,340 L 1300,340" stroke="#0000b2" stroke-width="2.8" fill="none"/>
<path d="M 360,20 L 380,20" stroke="#0000b2" stroke-width="2.8" fill="none"/>
<path d="M 1140,180 L 1160,180 L 1180,180" stroke="#0000b2" stroke-width="2.8" fill="none"/>
<path d="M 860,380 L 860,180 L 900,180" stroke="#0000b2" stroke-width="2.8" fill="none"/>
<path d="M 560,280 L 580,280" stroke="#0000b2" stroke-width="2.8" fill="none"/>
<path d="M 640,280 L 680,280 L 760,280 L 760,340 L 900,340" stroke="#0000b2" stroke-width="2.8" fill="none"/>
<path d="M 320,280 L 340,280" stroke="#0000b2" stroke-width="2.8" fill="none"/>
<path d="M 640,440 L 680,440 L 780,440 L 780,380 L 860,380 L 900,380" stroke="#0000b2" stroke-width="2.8" fill="none"/>
<path d="M 560,440 L 580,440" stroke="#0000b2" stroke-width="2.8" fill="none"/>
<path d="M 1340,440 L 1380,440" stroke="#0000b2" stroke-width="2.8" fill="none"/>
<path d="M 360,120 L 380,120" stroke="#0000b2" stroke-width="2.8" fill="none"/>
<path d="M 1020,120 L 1080,120 L 1080,200 L 1100,200" stroke="#0000b2" stroke-width="2.8" fill="none"/>
<path d="M 560,120 L 580,120" stroke="#0000b2" stroke-width="2.8" fill="none"/>
<path d="M 820,60 L 860,60 L 860,160 L 900,160" stroke="#0000b2" stroke-width="2.8" fill="none"/>
<path d="M 780,60 L 800,60" stroke="#0000b2" stroke-width="2.8" fill="none"/>
<path d="M 360,60 L 380,60" stroke="#0000b2" stroke-width="2.8" fill="none"/>
<path d="M 320,220 L 340,220" stroke="#0000b2" stroke-width="2.8" fill="none"/>
<path d="M 1280,380 L 1300,380" stroke="#0000b2" stroke-width="2.8" fill="none"/>
<path d="M 640,360 L 650,360 L 660,360" stroke="#000000" stroke-width="2.8" fill="none"/>
<path d="M 660,380 L 650,380" stroke="#000000" stroke-width="2.8" fill="none"/>
<path d="M 800,60 L 810,60 L 820,60" stroke="#000000" stroke-width="2.8" fill="none"/>
<path d="M 820,80 L 810,80" stroke="#000000" stroke-width="2.8" fill="none"/>
<path d="M 820,100 L 810,100" stroke="#000000" stroke-width="2.8" fill="none"/>
<path d="M 1180,180 L 1190,180 L 1200,180" stroke="#000000" stroke-width="2.8" fill="none"/>
<path d="M 1200,200 L 1190,200" stroke="#000000" stroke-width="2.8" fill="none"/>
<path d="M 1180,260 L 1170,260 L 1160,260" stroke="#000000" stroke-width="2.8" fill="none"/>
<path d="M 1160,240 L 1170,240" stroke="#000000" stroke-width="2.8" fill="none"/>
<g>
<circle cx="1120.0" cy="320.0" r="4.0" stroke="#0000b2" stroke-width="2.8" fill="#0000b2" />
<circle cx="1260.0" cy="160.0" r="4.0" stroke="#0000b2" stroke-width="2.8" fill="#0000b2" />
<circle cx="680.0" cy="140.0" r="4.0" stroke="#0000b2" stroke-width="2.8" fill="#0000b2" />
<circle cx="780.0" cy="140.0" r="4.0" stroke="#0000b2" stroke-width="2.8" fill="#0000b2" />
<circle cx="1120.0" cy="240.0" r="4.0" stroke="#0000b2" stroke-width="2.8" fill="#0000b2" />
<circle cx="1160.0" cy="180.0" r="4.0" stroke="#0000b2" stroke-width="2.8" fill="#0000b2" />
<circle cx="680.0" cy="280.0" r="4.0" stroke="#0000b2" stroke-width="2.8" fill="#0000b2" />
<circle cx="680.0" cy="440.0" r="4.0" stroke="#0000b2" stroke-width="2.8" fill="#0000b2" />
<circle cx="860.0" cy="380.0" r="4.0" stroke="#0000b2" stroke-width="2.8" fill="#0000b2" />
</g>
<g>
<path d="M 901,306 L 1019,306 L 1019,394 L 901,394 Z" stroke="#ffffcc" stroke-width="0.0" fill="#ffffcc" fill-opacity="1.0"/>
<path d="M 901,306 L 1019,306 L 1019,394 L 901,394 Z" stroke="#000000" stroke-width="2.8" fill="none"/>
<text text-anchor="middle" x="960.0" y="298.0" fill="#000000" style="font-size:24px">ALU</text>
<text text-anchor="start" x="904.0" y="326.75" fill="#808080" style="font-size:18px">A</text>
<text text-anchor="start" x="904.0" y="346.75" fill="#808080" style="font-size:18px">B</text>
<text text-anchor="start" x="904.0" y="366.75" fill="#808080" style="font-size:18px">OP</text>
<text text-anchor="start" x="904.0" y="386.75" fill="#808080" style="font-size:18px">CIN</text>
<text text-anchor="end" x="1016.0" y="326.75" fill="#808080" style="font-size:18px">OUT</text>
<text text-anchor="end" x="1016.0" y="346.75" fill="#808080" style="font-size:18px">VOUT</text>
<text text-anchor="end" x="1016.0" y="366.75" fill="#808080" style="font-size:18px">COUT</text>
<text text-anchor="middle" x="960.0" y="411.5" fill="#808080" style="font-size:18px">ALU</text>
<circle cx="900.0" cy="320.0" r="2.0" stroke="#0000b2" stroke-width="2.8" fill="#0000b2" />
<circle cx="900.0" cy="340.0" r="2.0" stroke="#0000b2" stroke-width="2.8" fill="#0000b2" />
<circle cx="900.0" cy="360.0" r="2.0" stroke="#0000b2" stroke-width="2.8" fill="#0000b2" />
<circle cx="900.0" cy="380.0" r="2.0" stroke="#0000b2" stroke-width="2.8" fill="#0000b2" />
<circle cx="1020.0" cy="320.0" r="2.0" stroke="#b20000" stroke-width="2.8" fill="#b20000" />
<circle cx="1020.0" cy="340.0" r="2.0" stroke="#b20000" stroke-width="2.8" fill="#b20000" />
<circle cx="1020.0" cy="360.0" r="2.0" stroke="#b20000" stroke-width="2.8" fill="#b20000" />
</g>
<g>
<path d="M 581,110 L 639,110 L 639,170 L 581,170 Z" stroke="#000000" stroke-width="2.8" fill="none"/>
<text text-anchor="middle" x="610.0" y="102.0" fill="#000000" style="font-size:24px">A</text>
<text text-anchor="start" x="584.0" y="126.75" fill="#808080" style="font-size:18px">D</text>
<path d="M 581,147 L 588,140 L 581,133" stroke="#000000" stroke-width="1.4" fill="none"/>
<text text-anchor="start" x="591.0" y="146.75" fill="#808080" style="font-size:18px">C</text>
<text text-anchor="start" x="584.0" y="166.75" fill="#808080" style="font-size:18px">en</text>
<text text-anchor="end" x="636.0" y="146.75" fill="#808080" style="font-size:18px">Q</text>
<text text-anchor="middle" x="610.0" y="187.5" fill="#808080" style="font-size:18px">Reg</text>
<circle cx="580.0" cy="120.0" r="2.0" stroke="#0000b2" stroke-width="2.8" fill="#0000b2" />
<circle cx="580.0" cy="140.0" r="2.0" stroke="#0000b2" stroke-width="2.8" fill="#0000b2" />
<circle cx="580.0" cy="160.0" r="2.0" stroke="#0000b2" stroke-width="2.8" fill="#0000b2" />
<circle cx="640.0" cy="140.0" r="2.0" stroke="#b20000" stroke-width="2.8" fill="#b20000" />
</g>
<g>
<path d="M 560,160 L 546,152 L 546,168 Z" stroke="#000000" stroke-width="2.8" fill="none"/>
<text text-anchor="end" x="541.0" y="166.75" fill="#808080" style="font-size:18px">LDA</text>
<circle cx="560.0" cy="160.0" r="2.0" stroke="#0000b2" stroke-width="2.8" fill="#0000b2" />
</g>
<g>
<path d="M 560,140 L 546,132 L 546,148 Z" stroke="#000000" stroke-width="2.8" fill="none"/>
<text text-anchor="end" x="541.0" y="146.75" fill="#808080" style="font-size:18px">CLOCK</text>
<circle cx="560.0" cy="140.0" r="2.0" stroke="#0000b2" stroke-width="2.8" fill="#0000b2" />
</g>
<g>
<path d="M 581,250 L 639,250 L 639,310 L 581,310 Z" stroke="#000000" stroke-width="2.8" fill="none"/>
<text text-anchor="middle" x="610.0" y="242.0" fill="#000000" style="font-size:24px">B</text>
<text text-anchor="start" x="584.0" y="266.75" fill="#808080" style="font-size:18px">D</text>
<path d="M 581,287 L 588,280 L 581,273" stroke="#000000" stroke-width="1.4" fill="none"/>
<text text-anchor="start" x="591.0" y="286.75" fill="#808080" style="font-size:18px">C</text>
<text text-anchor="start" x="584.0" y="306.75" fill="#808080" style="font-size:18px">en</text>
<text text-anchor="end" x="636.0" y="286.75" fill="#808080" style="font-size:18px">Q</text>
<text text-anchor="middle" x="610.0" y="327.5" fill="#808080" style="font-size:18px">Reg</text>
<circle cx="580.0" cy="260.0" r="2.0" stroke="#0000b2" stroke-width="2.8" fill="#0000b2" />
<circle cx="580.0" cy="280.0" r="2.0" stroke="#0000b2" stroke-width="2.8" fill="#0000b2" />
<circle cx="580.0" cy="300.0" r="2.0" stroke="#0000b2" stroke-width="2.8" fill="#0000b2" />
<circle cx="640.0" cy="280.0" r="2.0" stroke="#b20000" stroke-width="2.8" fill="#b20000" />
</g>
<g>
<path d="M 560,300 L 546,292 L 546,308 Z" stroke="#000000" stroke-width="2.8" fill="none"/>
<text text-anchor="end" x="541.0" y="306.75" fill="#808080" style="font-size:18px">LDB</text>
<circle cx="560.0" cy="300.0" r="2.0" stroke="#0000b2" stroke-width="2.8" fill="#0000b2" />
</g>
<g>
<path d="M 560,280 L 546,272 L 546,288 Z" stroke="#000000" stroke-width="2.8" fill="none"/>
<text text-anchor="end" x="541.0" y="286.75" fill="#808080" style="font-size:18px">CLOCK</text>
<circle cx="560.0" cy="280.0" r="2.0" stroke="#0000b2" stroke-width="2.8" fill="#0000b2" />
</g>
<g>
<path d="M 380,160 L 394,168 L 394,152 Z" stroke="#000000" stroke-width="2.8" fill="none"/>
<text text-anchor="start" x="399.0" y="166.75" fill="#808080" style="font-size:18px">OP</text>
<circle cx="380.0" cy="160.0" r="2.0" stroke="#0000b2" stroke-width="2.8" fill="#0000b2" />
</g>
<g>
<path d="M 581,410 L 639,410 L 639,470 L 581,470 Z" stroke="#000000" stroke-width="2.8" fill="none"/>
<text text-anchor="middle" x="610.0" y="402.0" fill="#000000" style="font-size:24px">C</text>
<text text-anchor="start" x="584.0" y="426.75" fill="#808080" style="font-size:18px">D</text>
<path d="M 581,447 L 588,440 L 581,433" stroke="#000000" stroke-width="1.4" fill="none"/>
<text text-anchor="start" x="591.0" y="446.75" fill="#808080" style="font-size:18px">C</text>
<text text-anchor="start" x="584.0" y="466.75" fill="#808080" style="font-size:18px">en</text>
<text text-anchor="end" x="636.0" y="446.75" fill="#808080" style="font-size:18px">Q</text>
<text text-anchor="middle" x="610.0" y="487.5" fill="#808080" style="font-size:18px">Reg</text>
<circle cx="580.0" cy="420.0" r="2.0" stroke="#0000b2" stroke-width="2.8" fill="#0000b2" />
<circle cx="580.0" cy="440.0" r="2.0" stroke="#0000b2" stroke-width="2.8" fill="#0000b2" />
<circle cx="580.0" cy="460.0" r="2.0" stroke="#0000b2" stroke-width="2.8" fill="#0000b2" />
<circle cx="640.0" cy="440.0" r="2.0" stroke="#b20000" stroke-width="2.8" fill="#b20000" />
</g>
<g>
<path d="M 560,440 L 546,432 L 546,448 Z" stroke="#000000" stroke-width="2.8" fill="none"/>
<text text-anchor="end" x="541.0" y="446.75" fill="#808080" style="font-size:18px">CLOCK</text>
<circle cx="560.0" cy="440.0" r="2.0" stroke="#0000b2" stroke-width="2.8" fill="#0000b2" />
</g>
<g>
<path d="M 560,460 L 546,452 L 546,468 Z" stroke="#000000" stroke-width="2.8" fill="none"/>
<text text-anchor="end" x="541.0" y="466.75" fill="#808080" style="font-size:18px">LDC</text>
<circle cx="560.0" cy="460.0" r="2.0" stroke="#0000b2" stroke-width="2.8" fill="#0000b2" />
</g>
<g>
<text text-anchor="start" x="120.0" y="30.5" fill="#000000" style="font-size:14px">ALU Operation</text>
<text text-anchor="start" x="120.0" y="64.5" fill="#000000" style="font-size:14px">0 0 0 0 AND</text>
<text text-anchor="start" x="120.0" y="81.5" fill="#000000" style="font-size:14px">0 0 0 1 OR</text>
<text text-anchor="start" x="120.0" y="98.5" fill="#000000" style="font-size:14px">0 0 1 0 NOT</text>
<text text-anchor="start" x="120.0" y="115.5" fill="#000000" style="font-size:14px">0 0 1 1 XOR</text>
<text text-anchor="start" x="120.0" y="132.5" fill="#000000" style="font-size:14px">0 1 0 0 ADD</text>
<text text-anchor="start" x="120.0" y="149.5" fill="#000000" style="font-size:14px">0 1 0 1 SUB</text>
<text text-anchor="start" x="120.0" y="166.5" fill="#000000" style="font-size:14px">0 1 1 0 INC</text>
<text text-anchor="start" x="120.0" y="183.5" fill="#000000" style="font-size:14px">0 1 1 1 DEC</text>
<text text-anchor="start" x="120.0" y="200.5" fill="#000000" style="font-size:14px">1 0 0 0 SHIFT-R</text>
<text text-anchor="start" x="120.0" y="217.5" fill="#000000" style="font-size:14px">1 0 0 1 SHIFT-L</text>
<text text-anchor="start" x="120.0" y="234.5" fill="#000000" style="font-size:14px">1 0 1 0 ROT-R</text>
<text text-anchor="start" x="120.0" y="251.5" fill="#000000" style="font-size:14px">1 0 1 1 ROT-L</text>
</g>
<g>
<path d="M 560,120 L 546,112 L 546,128 Z" stroke="#000000" stroke-width="2.8" fill="none"/>
<text text-anchor="end" x="541.0" y="126.75" fill="#808080" style="font-size:18px">A</text>
<circle cx="560.0" cy="120.0" r="2.0" stroke="#0000b2" stroke-width="2.8" fill="#0000b2" />
</g>
<g>
<path d="M 560,260 L 546,252 L 546,268 Z" stroke="#000000" stroke-width="2.8" fill="none"/>
<text text-anchor="end" x="541.0" y="266.75" fill="#808080" style="font-size:18px">B</text>
<circle cx="560.0" cy="260.0" r="2.0" stroke="#0000b2" stroke-width="2.8" fill="#0000b2" />
</g>
<g>
<path d="M 560,420 L 546,412 L 546,428 Z" stroke="#000000" stroke-width="2.8" fill="none"/>
<text text-anchor="end" x="541.0" y="426.75" fill="#808080" style="font-size:18px">CIN</text>
<circle cx="560.0" cy="420.0" r="2.0" stroke="#0000b2" stroke-width="2.8" fill="#0000b2" />
</g>
<g>
<path d="M 380,40 L 394,48 L 394,32 Z" stroke="#000000" stroke-width="2.8" fill="none"/>
<text text-anchor="start" x="399.0" y="46.75" fill="#808080" style="font-size:18px">A</text>
<circle cx="380.0" cy="40.0" r="2.0" stroke="#0000b2" stroke-width="2.8" fill="#0000b2" />
</g>
<g>
<path d="M 380,60 L 394,68 L 394,52 Z" stroke="#000000" stroke-width="2.8" fill="none"/>
<text text-anchor="start" x="399.0" y="66.75" fill="#808080" style="font-size:18px">B</text>
<circle cx="380.0" cy="60.0" r="2.0" stroke="#0000b2" stroke-width="2.8" fill="#0000b2" />
</g>
<g>
<path d="M 380,80 L 394,88 L 394,72 Z" stroke="#000000" stroke-width="2.8" fill="none"/>
<text text-anchor="start" x="399.0" y="86.75" fill="#808080" style="font-size:18px">CIN</text>
<circle cx="380.0" cy="80.0" r="2.0" stroke="#0000b2" stroke-width="2.8" fill="#0000b2" />
</g>
<g>
<path d="M 320,200 L 306,192 L 306,208 Z" stroke="#000000" stroke-width="2.8" fill="none"/>
<text text-anchor="end" x="301.0" y="206.75" fill="#808080" style="font-size:18px">R</text>
<circle cx="320.0" cy="200.0" r="2.0" stroke="#0000b2" stroke-width="2.8" fill="#0000b2" />
</g>
<g>
<path d="M 320,220 L 306,212 L 306,228 Z" stroke="#000000" stroke-width="2.8" fill="none"/>
<text text-anchor="end" x="301.0" y="226.75" fill="#808080" style="font-size:18px">N</text>
<circle cx="320.0" cy="220.0" r="2.0" stroke="#0000b2" stroke-width="2.8" fill="#0000b2" />
</g>
<g>
<path d="M 320,240 L 306,232 L 306,248 Z" stroke="#000000" stroke-width="2.8" fill="none"/>
<text text-anchor="end" x="301.0" y="246.75" fill="#808080" style="font-size:18px">V</text>
<circle cx="320.0" cy="240.0" r="2.0" stroke="#0000b2" stroke-width="2.8" fill="#0000b2" />
</g>
<g>
<path d="M 320,260 L 306,252 L 306,268 Z" stroke="#000000" stroke-width="2.8" fill="none"/>
<text text-anchor="end" x="301.0" y="266.75" fill="#808080" style="font-size:18px">Z</text>
<circle cx="320.0" cy="260.0" r="2.0" stroke="#0000b2" stroke-width="2.8" fill="#0000b2" />
</g>
<g>
<path d="M 320,280 L 306,272 L 306,288 Z" stroke="#000000" stroke-width="2.8" fill="none"/>
<text text-anchor="end" x="301.0" y="286.75" fill="#808080" style="font-size:18px">C</text>
<circle cx="320.0" cy="280.0" r="2.0" stroke="#0000b2" stroke-width="2.8" fill="#0000b2" />
</g>
<g>
<path d="M 339,10 L 359,10 L 359,30 L 339,30 Z" stroke="#000000" stroke-width="2.8" fill="none"/>
<text text-anchor="end" x="330.0" y="29.0" fill="#000000" style="font-size:24px"><tspan style="font-style:italic;">CLOCK</tspan></text>
<path d="M 344,23 L 347,23 L 347,17 L 350,17 L 350,23 L 353,23 L 353,17 L 356,17" stroke="#000000" stroke-width="1.4" fill="none"/>
<circle cx="360.0" cy="20.0" r="2.0" stroke="#b20000" stroke-width="2.8" fill="#b20000" />
</g>
<g>
<path d="M 339,30 L 359,30 L 359,50 L 339,50 Z" stroke="#000000" stroke-width="2.8" fill="none"/>
<circle cx="349.0" cy="40.0" r="4.0" stroke="#000000" stroke-width="1.4" fill="none" />
<text text-anchor="end" x="330.0" y="49.0" fill="#000000" style="font-size:24px"><tspan style="font-style:italic;">A</tspan></text>
<circle cx="360.0" cy="40.0" r="2.0" stroke="#b20000" stroke-width="2.8" fill="#b20000" />
</g>
<g>
<path d="M 339,50 L 359,50 L 359,70 L 339,70 Z" stroke="#000000" stroke-width="2.8" fill="none"/>
<circle cx="349.0" cy="60.0" r="4.0" stroke="#000000" stroke-width="1.4" fill="none" />
<text text-anchor="end" x="330.0" y="69.0" fill="#000000" style="font-size:24px"><tspan style="font-style:italic;">B</tspan></text>
<circle cx="360.0" cy="60.0" r="2.0" stroke="#b20000" stroke-width="2.8" fill="#b20000" />
</g>
<g>
<path d="M 339,70 L 359,70 L 359,90 L 339,90 Z" stroke="#000000" stroke-width="2.8" fill="none"/>
<circle cx="349.0" cy="80.0" r="4.0" stroke="#000000" stroke-width="1.4" fill="none" />
<text text-anchor="end" x="330.0" y="89.0" fill="#000000" style="font-size:24px"><tspan style="font-style:italic;">CIN</tspan></text>
<circle cx="360.0" cy="80.0" r="2.0" stroke="#b20000" stroke-width="2.8" fill="#b20000" />
</g>
<g>
<path d="M 380,20 L 394,28 L 394,12 Z" stroke="#000000" stroke-width="2.8" fill="none"/>
<text text-anchor="start" x="399.0" y="26.75" fill="#808080" style="font-size:18px">CLOCK</text>
<circle cx="380.0" cy="20.0" r="2.0" stroke="#0000b2" stroke-width="2.8" fill="#0000b2" />
</g>
<g>
<path d="M 339,90 L 359,90 L 359,110 L 339,110 Z" stroke="#000000" stroke-width="2.8" fill="none"/>
<circle cx="349.0" cy="100.0" r="4.0" stroke="#000000" stroke-width="1.4" fill="none" />
<text text-anchor="end" x="330.0" y="109.0" fill="#000000" style="font-size:24px"><tspan style="font-style:italic;">LDA</tspan></text>
<circle cx="360.0" cy="100.0" r="2.0" stroke="#b20000" stroke-width="2.8" fill="#b20000" />
</g>
<g>
<path d="M 560,360 L 546,352 L 546,368 Z" stroke="#000000" stroke-width="2.8" fill="none"/>
<text text-anchor="end" x="541.0" y="366.75" fill="#808080" style="font-size:18px">OP</text>
<circle cx="560.0" cy="360.0" r="2.0" stroke="#0000b2" stroke-width="2.8" fill="#0000b2" />
</g>
<g>
<path d="M 380,100 L 394,108 L 394,92 Z" stroke="#000000" stroke-width="2.8" fill="none"/>
<text text-anchor="start" x="399.0" y="106.75" fill="#808080" style="font-size:18px">LDA</text>
<circle cx="380.0" cy="100.0" r="2.0" stroke="#0000b2" stroke-width="2.8" fill="#0000b2" />
</g>
<g>
<path d="M 380,120 L 394,128 L 394,112 Z" stroke="#000000" stroke-width="2.8" fill="none"/>
<text text-anchor="start" x="399.0" y="126.75" fill="#808080" style="font-size:18px">LDB</text>
<circle cx="380.0" cy="120.0" r="2.0" stroke="#0000b2" stroke-width="2.8" fill="#0000b2" />
</g>
<g>
<path d="M 380,140 L 394,148 L 394,132 Z" stroke="#000000" stroke-width="2.8" fill="none"/>
<text text-anchor="start" x="399.0" y="146.75" fill="#808080" style="font-size:18px">LDC</text>
<circle cx="380.0" cy="140.0" r="2.0" stroke="#0000b2" stroke-width="2.8" fill="#0000b2" />
</g>
<g>
<path d="M 339,110 L 359,110 L 359,130 L 339,130 Z" stroke="#000000" stroke-width="2.8" fill="none"/>
<circle cx="349.0" cy="120.0" r="4.0" stroke="#000000" stroke-width="1.4" fill="none" />
<text text-anchor="end" x="330.0" y="129.0" fill="#000000" style="font-size:24px"><tspan style="font-style:italic;">LDB</tspan></text>
<circle cx="360.0" cy="120.0" r="2.0" stroke="#b20000" stroke-width="2.8" fill="#b20000" />
</g>
<g>
<path d="M 339,130 L 359,130 L 359,150 L 339,150 Z" stroke="#000000" stroke-width="2.8" fill="none"/>
<circle cx="349.0" cy="140.0" r="4.0" stroke="#000000" stroke-width="1.4" fill="none" />
<text text-anchor="end" x="330.0" y="149.0" fill="#000000" style="font-size:24px"><tspan style="font-style:italic;">LDC</tspan></text>
<circle cx="360.0" cy="140.0" r="2.0" stroke="#b20000" stroke-width="2.8" fill="#b20000" />
</g>
<g>
<path d="M 339,150 L 359,150 L 359,170 L 339,170 Z" stroke="#000000" stroke-width="2.8" fill="none"/>
<circle cx="349.0" cy="160.0" r="4.0" stroke="#000000" stroke-width="1.4" fill="none" />
<text text-anchor="end" x="330.0" y="169.0" fill="#000000" style="font-size:24px"><tspan style="font-style:italic;">OP</tspan></text>
<circle cx="360.0" cy="160.0" r="2.0" stroke="#b20000" stroke-width="2.8" fill="#b20000" />
</g>
<g>
<circle cx="351.0" cy="220.0" r="4.0" stroke="#000000" stroke-width="1.4" fill="none" />
<circle cx="351.0" cy="220.0" r="10.0" stroke="#000000" stroke-width="2.8" fill="none" />
<text text-anchor="start" x="370.0" y="229.0" fill="#000000" style="font-size:24px"><tspan style="font-style:italic;">N</tspan></text>
<circle cx="340.0" cy="220.0" r="2.0" stroke="#0000b2" stroke-width="2.8" fill="#0000b2" />
</g>
<g>
<circle cx="351.0" cy="240.0" r="4.0" stroke="#000000" stroke-width="1.4" fill="none" />
<circle cx="351.0" cy="240.0" r="10.0" stroke="#000000" stroke-width="2.8" fill="none" />
<text text-anchor="start" x="370.0" y="249.0" fill="#000000" style="font-size:24px"><tspan style="font-style:italic;">V</tspan></text>
<circle cx="340.0" cy="240.0" r="2.0" stroke="#0000b2" stroke-width="2.8" fill="#0000b2" />
</g>
<g>
<circle cx="351.0" cy="260.0" r="4.0" stroke="#000000" stroke-width="1.4" fill="none" />
<circle cx="351.0" cy="260.0" r="10.0" stroke="#000000" stroke-width="2.8" fill="none" />
<text text-anchor="start" x="370.0" y="269.0" fill="#000000" style="font-size:24px"><tspan style="font-style:italic;">Z</tspan></text>
<circle cx="340.0" cy="260.0" r="2.0" stroke="#0000b2" stroke-width="2.8" fill="#0000b2" />
</g>
<g>
<circle cx="351.0" cy="280.0" r="4.0" stroke="#000000" stroke-width="1.4" fill="none" />
<circle cx="351.0" cy="280.0" r="10.0" stroke="#000000" stroke-width="2.8" fill="none" />
<text text-anchor="start" x="370.0" y="289.0" fill="#000000" style="font-size:24px"><tspan style="font-style:italic;">C</tspan></text>
<circle cx="340.0" cy="280.0" r="2.0" stroke="#0000b2" stroke-width="2.8" fill="#0000b2" />
</g>
<g>
<circle cx="351.0" cy="200.0" r="4.0" stroke="#000000" stroke-width="1.4" fill="none" />
<circle cx="351.0" cy="200.0" r="10.0" stroke="#000000" stroke-width="2.8" fill="none" />
<text text-anchor="start" x="370.0" y="209.0" fill="#000000" style="font-size:24px"><tspan style="font-style:italic;">R</tspan></text>
<circle cx="340.0" cy="200.0" r="2.0" stroke="#0000b2" stroke-width="2.8" fill="#0000b2" />
</g>
<g>
<path d="M 700,240 L 714,248 L 714,232 Z" stroke="#000000" stroke-width="2.8" fill="none"/>
<text text-anchor="start" x="719.0" y="246.75" fill="#808080" style="font-size:18px">&lt;B&gt;</text>
<circle cx="700.0" cy="240.0" r="2.0" stroke="#0000b2" stroke-width="2.8" fill="#0000b2" />
</g>
<g>
<path d="M 700,400 L 714,408 L 714,392 Z" stroke="#000000" stroke-width="2.8" fill="none"/>
<text text-anchor="start" x="719.0" y="406.75" fill="#808080" style="font-size:18px">&lt;C&gt;</text>
<circle cx="700.0" cy="400.0" r="2.0" stroke="#0000b2" stroke-width="2.8" fill="#0000b2" />
</g>
<g>
<path d="M 700,100 L 714,108 L 714,92 Z" stroke="#000000" stroke-width="2.8" fill="none"/>
<text text-anchor="start" x="719.0" y="106.75" fill="#808080" style="font-size:18px">&lt;A&gt;</text>
<circle cx="700.0" cy="100.0" r="2.0" stroke="#0000b2" stroke-width="2.8" fill="#0000b2" />
</g>
<g>
<path d="M 320,300 L 306,292 L 306,308 Z" stroke="#000000" stroke-width="2.8" fill="none"/>
<text text-anchor="end" x="301.0" y="306.75" fill="#808080" style="font-size:18px">&lt;A&gt;</text>
<circle cx="320.0" cy="300.0" r="2.0" stroke="#0000b2" stroke-width="2.8" fill="#0000b2" />
</g>
<g>
<path d="M 320,320 L 306,312 L 306,328 Z" stroke="#000000" stroke-width="2.8" fill="none"/>
<text text-anchor="end" x="301.0" y="326.75" fill="#808080" style="font-size:18px">&lt;B&gt;</text>
<circle cx="320.0" cy="320.0" r="2.0" stroke="#0000b2" stroke-width="2.8" fill="#0000b2" />
</g>
<g>
<path d="M 320,340 L 306,332 L 306,348 Z" stroke="#000000" stroke-width="2.8" fill="none"/>
<text text-anchor="end" x="301.0" y="346.75" fill="#808080" style="font-size:18px">&lt;C&gt;</text>
<circle cx="320.0" cy="340.0" r="2.0" stroke="#0000b2" stroke-width="2.8" fill="#0000b2" />
</g>
<g>
<circle cx="351.0" cy="300.0" r="4.0" stroke="#000000" stroke-width="1.4" fill="none" />
<circle cx="351.0" cy="300.0" r="10.0" stroke="#000000" stroke-width="2.8" fill="none" />
<text text-anchor="start" x="370.0" y="309.0" fill="#000000" style="font-size:24px"><tspan style="font-style:italic;">&lt;A&gt;</tspan></text>
<circle cx="340.0" cy="300.0" r="2.0" stroke="#0000b2" stroke-width="2.8" fill="#0000b2" />
</g>
<g>
<circle cx="351.0" cy="320.0" r="4.0" stroke="#000000" stroke-width="1.4" fill="none" />
<circle cx="351.0" cy="320.0" r="10.0" stroke="#000000" stroke-width="2.8" fill="none" />
<text text-anchor="start" x="370.0" y="329.0" fill="#000000" style="font-size:24px"><tspan style="font-style:italic;">&lt;B&gt;</tspan></text>
<circle cx="340.0" cy="320.0" r="2.0" stroke="#0000b2" stroke-width="2.8" fill="#0000b2" />
</g>
<g>
<circle cx="351.0" cy="340.0" r="4.0" stroke="#000000" stroke-width="1.4" fill="none" />
<circle cx="351.0" cy="340.0" r="10.0" stroke="#000000" stroke-width="2.8" fill="none" />
<text text-anchor="start" x="370.0" y="349.0" fill="#000000" style="font-size:24px"><tspan style="font-style:italic;">&lt;C&gt;</tspan></text>
<circle cx="340.0" cy="340.0" r="2.0" stroke="#0000b2" stroke-width="2.8" fill="#0000b2" />
</g>
<g>
<path d="M 901,106 L 1019,106 L 1019,194 L 901,194 Z" stroke="#ffffcc" stroke-width="0.0" fill="#ffffcc" fill-opacity="1.0"/>
<path d="M 901,106 L 1019,106 L 1019,194 L 901,194 Z" stroke="#000000" stroke-width="2.8" fill="none"/>
<text text-anchor="middle" x="960.0" y="98.0" fill="#000000" style="font-size:24px">Shifter</text>
<text text-anchor="start" x="904.0" y="126.75" fill="#808080" style="font-size:18px">D</text>
<text text-anchor="start" x="904.0" y="146.75" fill="#808080" style="font-size:18px">OP</text>
<text text-anchor="start" x="904.0" y="166.75" fill="#808080" style="font-size:18px">DIR</text>
<text text-anchor="start" x="904.0" y="186.75" fill="#808080" style="font-size:18px">CIN</text>
<text text-anchor="end" x="1016.0" y="126.75" fill="#808080" style="font-size:18px">Q</text>
<text text-anchor="end" x="1016.0" y="146.75" fill="#808080" style="font-size:18px">COUT</text>
<text text-anchor="middle" x="960.0" y="211.5" fill="#808080" style="font-size:18px">Shifter</text>
<circle cx="900.0" cy="120.0" r="2.0" stroke="#0000b2" stroke-width="2.8" fill="#0000b2" />
<circle cx="900.0" cy="140.0" r="2.0" stroke="#0000b2" stroke-width="2.8" fill="#0000b2" />
<circle cx="900.0" cy="160.0" r="2.0" stroke="#0000b2" stroke-width="2.8" fill="#0000b2" />
<circle cx="900.0" cy="180.0" r="2.0" stroke="#0000b2" stroke-width="2.8" fill="#0000b2" />
<circle cx="1020.0" cy="120.0" r="2.0" stroke="#b20000" stroke-width="2.8" fill="#b20000" />
<circle cx="1020.0" cy="140.0" r="2.0" stroke="#b20000" stroke-width="2.8" fill="#b20000" />
</g>
<g>
<text text-anchor="end" x="638.0" y="357.0" fill="#808080" style="font-size:12px">0-3</text>
<text text-anchor="start" x="662.0" y="357.0" fill="#808080" style="font-size:12px">0-2</text>
<text text-anchor="start" x="662.0" y="377.0" fill="#808080" style="font-size:12px">3</text>
<path d="M 648,358 L 652,358 L 652,382 L 648,382 Z" stroke="#000000" stroke-width="2.8" fill="#000000" fill-opacity="1.0"/>
<circle cx="640.0" cy="360.0" r="2.0" stroke="#0000b2" stroke-width="2.8" fill="#0000b2" />
<circle cx="660.0" cy="360.0" r="2.0" stroke="#b20000" stroke-width="2.8" fill="#b20000" />
<circle cx="660.0" cy="380.0" r="2.0" stroke="#b20000" stroke-width="2.8" fill="#b20000" />
</g>
<g>
<text text-anchor="end" x="798.0" y="57.0" fill="#808080" style="font-size:12px">0-3</text>
<text text-anchor="start" x="822.0" y="57.0" fill="#808080" style="font-size:12px">0</text>
<text text-anchor="start" x="822.0" y="77.0" fill="#808080" style="font-size:12px">1</text>
<text text-anchor="start" x="822.0" y="97.0" fill="#808080" style="font-size:12px">2,3</text>
<path d="M 808,58 L 812,58 L 812,102 L 808,102 Z" stroke="#000000" stroke-width="2.8" fill="#000000" fill-opacity="1.0"/>
<circle cx="800.0" cy="60.0" r="2.0" stroke="#0000b2" stroke-width="2.8" fill="#0000b2" />
<circle cx="820.0" cy="60.0" r="2.0" stroke="#b20000" stroke-width="2.8" fill="#b20000" />
<circle cx="820.0" cy="80.0" r="2.0" stroke="#b20000" stroke-width="2.8" fill="#b20000" />
<circle cx="820.0" cy="100.0" r="2.0" stroke="#b20000" stroke-width="2.8" fill="#b20000" />
</g>
<g>
<path d="M 1101,156 L 1139,165 L 1139,195 L 1101,204 Z" stroke="#000000" stroke-width="2.8" fill="none"/>
<text text-anchor="start" x="1103.0" y="175.5" fill="#808080" style="font-size:18px">0</text>
<circle cx="1120.0" cy="200.0" r="2.0" stroke="#0000b2" stroke-width="2.8" fill="#0000b2" />
<circle cx="1100.0" cy="160.0" r="2.0" stroke="#0000b2" stroke-width="2.8" fill="#0000b2" />
<circle cx="1100.0" cy="200.0" r="2.0" stroke="#0000b2" stroke-width="2.8" fill="#0000b2" />
<circle cx="1140.0" cy="180.0" r="2.0" stroke="#b20000" stroke-width="2.8" fill="#b20000" />
</g>
<g>
<path d="M 780,60 L 766,52 L 766,68 Z" stroke="#000000" stroke-width="2.8" fill="none"/>
<text text-anchor="end" x="761.0" y="66.75" fill="#808080" style="font-size:18px">OP</text>
<circle cx="780.0" cy="60.0" r="2.0" stroke="#0000b2" stroke-width="2.8" fill="#0000b2" />
</g>
<g>
<path d="M 1380,160 L 1394,168 L 1394,152 Z" stroke="#000000" stroke-width="2.8" fill="none"/>
<text text-anchor="start" x="1399.0" y="166.75" fill="#808080" style="font-size:18px">R</text>
<circle cx="1380.0" cy="160.0" r="2.0" stroke="#0000b2" stroke-width="2.8" fill="#0000b2" />
</g>
<g>
<path d="M 1380,200 L 1394,208 L 1394,192 Z" stroke="#000000" stroke-width="2.8" fill="none"/>
<text text-anchor="start" x="1399.0" y="206.75" fill="#808080" style="font-size:18px">N</text>
<circle cx="1380.0" cy="200.0" r="2.0" stroke="#0000b2" stroke-width="2.8" fill="#0000b2" />
</g>
<g>
<text text-anchor="end" x="1178.0" y="177.0" fill="#808080" style="font-size:12px">0-7</text>
<text text-anchor="start" x="1202.0" y="177.0" fill="#808080" style="font-size:12px">0-6</text>
<text text-anchor="start" x="1202.0" y="197.0" fill="#808080" style="font-size:12px">7</text>
<path d="M 1188,178 L 1192,178 L 1192,202 L 1188,202 Z" stroke="#000000" stroke-width="2.8" fill="#000000" fill-opacity="1.0"/>
<circle cx="1180.0" cy="180.0" r="2.0" stroke="#0000b2" stroke-width="2.8" fill="#0000b2" />
<circle cx="1200.0" cy="180.0" r="2.0" stroke="#b20000" stroke-width="2.8" fill="#b20000" />
<circle cx="1200.0" cy="200.0" r="2.0" stroke="#b20000" stroke-width="2.8" fill="#b20000" />
</g>
<g>
<path d="M 1301,230 L 1359,230 L 1359,290 L 1301,290 Z" stroke="#000000" stroke-width="2.8" fill="none"/>
<text text-anchor="start" x="1304.0" y="246.75" fill="#808080" style="font-size:18px">a</text>
<text text-anchor="start" x="1304.0" y="266.75" fill="#808080" style="font-size:18px">b</text>
<text text-anchor="end" x="1356.0" y="246.75" fill="#808080" style="font-size:18px">&gt;</text>
<text text-anchor="end" x="1356.0" y="266.75" fill="#808080" style="font-size:18px">=</text>
<text text-anchor="end" x="1356.0" y="286.75" fill="#808080" style="font-size:18px">&lt;</text>
<circle cx="1300.0" cy="240.0" r="2.0" stroke="#0000b2" stroke-width="2.8" fill="#0000b2" />
<circle cx="1300.0" cy="260.0" r="2.0" stroke="#0000b2" stroke-width="2.8" fill="#0000b2" />
<circle cx="1360.0" cy="240.0" r="2.0" stroke="#b20000" stroke-width="2.8" fill="#b20000" />
<circle cx="1360.0" cy="260.0" r="2.0" stroke="#b20000" stroke-width="2.8" fill="#b20000" />
<circle cx="1360.0" cy="280.0" r="2.0" stroke="#b20000" stroke-width="2.8" fill="#b20000" />
</g>
<g>
<text text-anchor="end" x="1277.0" y="269.0" fill="#000000" style="font-size:24px">0</text>
<circle cx="1280.0" cy="260.0" r="2.0" stroke="#b20000" stroke-width="2.8" fill="#b20000" />
</g>
<g>
<path d="M 1380,260 L 1394,268 L 1394,252 Z" stroke="#000000" stroke-width="2.8" fill="none"/>
<text text-anchor="start" x="1399.0" y="266.75" fill="#808080" style="font-size:18px">Z</text>
<circle cx="1380.0" cy="260.0" r="2.0" stroke="#0000b2" stroke-width="2.8" fill="#0000b2" />
</g>
<g>
<path d="M 1380,440 L 1394,448 L 1394,432 Z" stroke="#000000" stroke-width="2.8" fill="none"/>
<text text-anchor="start" x="1399.0" y="446.75" fill="#808080" style="font-size:18px">C</text>
<circle cx="1380.0" cy="440.0" r="2.0" stroke="#0000b2" stroke-width="2.8" fill="#0000b2" />
</g>
<g>
<path d="M 1301,416 L 1339,425 L 1339,455 L 1301,464 Z" stroke="#000000" stroke-width="2.8" fill="none"/>
<text text-anchor="start" x="1303.0" y="435.5" fill="#808080" style="font-size:18px">0</text>
<circle cx="1320.0" cy="420.0" r="2.0" stroke="#0000b2" stroke-width="2.8" fill="#0000b2" />
<circle cx="1300.0" cy="420.0" r="2.0" stroke="#0000b2" stroke-width="2.8" fill="#0000b2" />
<circle cx="1300.0" cy="460.0" r="2.0" stroke="#0000b2" stroke-width="2.8" fill="#0000b2" />
<circle cx="1340.0" cy="440.0" r="2.0" stroke="#b20000" stroke-width="2.8" fill="#b20000" />
</g>
<g>
<path d="M 1380,360 L 1394,368 L 1394,352 Z" stroke="#000000" stroke-width="2.8" fill="none"/>
<text text-anchor="start" x="1399.0" y="366.75" fill="#808080" style="font-size:18px">V</text>
<circle cx="1380.0" cy="360.0" r="2.0" stroke="#0000b2" stroke-width="2.8" fill="#0000b2" />
</g>
<g>
<path d="M 1301,336 L 1339,345 L 1339,375 L 1301,384 Z" stroke="#000000" stroke-width="2.8" fill="none"/>
<text text-anchor="start" x="1303.0" y="355.5" fill="#808080" style="font-size:18px">0</text>
<circle cx="1320.0" cy="340.0" r="2.0" stroke="#0000b2" stroke-width="2.8" fill="#0000b2" />
<circle cx="1300.0" cy="340.0" r="2.0" stroke="#0000b2" stroke-width="2.8" fill="#0000b2" />
<circle cx="1300.0" cy="380.0" r="2.0" stroke="#0000b2" stroke-width="2.8" fill="#0000b2" />
<circle cx="1340.0" cy="360.0" r="2.0" stroke="#b20000" stroke-width="2.8" fill="#b20000" />
</g>
<g>
<text text-anchor="end" x="1277.0" y="389.0" fill="#000000" style="font-size:24px">0</text>
<circle cx="1280.0" cy="380.0" r="2.0" stroke="#b20000" stroke-width="2.8" fill="#b20000" />
</g>
<g>
<text text-anchor="start" x="1182.0" y="272.0" fill="#808080" style="font-size:12px">0-3</text>
<text text-anchor="end" x="1158.0" y="272.0" fill="#808080" style="font-size:12px">0-2</text>
<text text-anchor="end" x="1158.0" y="252.0" fill="#808080" style="font-size:12px">3</text>
<path d="M 1172,262 L 1168,262 L 1168,238 L 1172,238 Z" stroke="#000000" stroke-width="2.8" fill="#000000" fill-opacity="1.0"/>
<circle cx="1180.0" cy="260.0" r="2.0" stroke="#0000b2" stroke-width="2.8" fill="#0000b2" />
<circle cx="1160.0" cy="260.0" r="2.0" stroke="#b20000" stroke-width="2.8" fill="#b20000" />
<circle cx="1160.0" cy="240.0" r="2.0" stroke="#b20000" stroke-width="2.8" fill="#b20000" />
</g>
<g>
<path d="M 1200,260 L 1214,268 L 1214,252 Z" stroke="#000000" stroke-width="2.8" fill="none"/>
<text text-anchor="start" x="1219.0" y="266.75" fill="#808080" style="font-size:18px">OP</text>
<circle cx="1200.0" cy="260.0" r="2.0" stroke="#0000b2" stroke-width="2.8" fill="#0000b2" />
</g>
</g>
</svg>