<?xml version="1.0" encoding="UTF-8" standalone="no"?>
<!-- Created with Digital by H.Neemann -->
<!-- created: Sun Jun 05 12:56:54 BST 2022 -->

<svg
   xmlns:svg="http://www.w3.org/2000/svg"
   xmlns="http://www.w3.org/2000/svg"
   width="191.7mm"
   height="87.6mm"
   viewBox="-892 378 1278 584">
<g stroke-linecap="square">
<path d="M -420,640 L -400,640" stroke="#0000b2" stroke-width="2.8" fill="none"/>
<path d="M -280,640 L -260,640" stroke="#0000b2" stroke-width="2.8" fill="none"/>
<path d="M -820,640 L -800,640" stroke="#0000b2" stroke-width="2.8" fill="none"/>
<path d="M 180,800 L 200,800" stroke="#0000b2" stroke-width="2.8" fill="none"/>
<path d="M 280,480 L 340,480 L 340,580 L -160,580 L -160,500 L -120,500" stroke="#0000b2" stroke-width="2.8" fill="none"/>
<path d="M 160,480 L 220,480" stroke="#0000b2" stroke-width="2.8" fill="none"/>
<path d="M -780,480 L -760,480" stroke="#0000b2" stroke-width="2.8" fill="none"/>
<path d="M -420,580 L -400,580 L -396,580" stroke="#0000b2" stroke-width="2.8" fill="none"/>
<path d="M -340,740 L -320,740" stroke="#0000b2" stroke-width="2.8" fill="none"/>
<path d="M 180,740 L 200,740 L 204,740" stroke="#0000b2" stroke-width="2.8" fill="none"/>
<path d="M -780,420 L -760,420" stroke="#0000b2" stroke-width="2.8" fill="none"/>
<path d="M -560,520 L -300,520" stroke="#0000b2" stroke-width="2.8" fill="none"/>
<path d="M -620,520 L -600,520" stroke="#0000b2" stroke-width="2.8" fill="none"/>
<path d="M -780,520 L -760,520" stroke="#0000b2" stroke-width="2.8" fill="none"/>
<path d="M -280,680 L -260,680" stroke="#0000b2" stroke-width="2.8" fill="none"/>
<path d="M 80,680 L 300,680" stroke="#0000b2" stroke-width="2.8" fill="none"/>
<path d="M 20,680 L 40,680" stroke="#0000b2" stroke-width="2.8" fill="none"/>
<path d="M -340,780 L -320,780" stroke="#0000b2" stroke-width="2.8" fill="none"/>
<path d="M 180,780 L 200,780 L 204,780" stroke="#0000b2" stroke-width="2.8" fill="none"/>
<path d="M 60,760 L 60,780 L 80,780 L 80,800" stroke="#0000b2" stroke-width="2.8" fill="none"/>
<path d="M 0,800 L 0,780 L 40,780 L 40,760" stroke="#0000b2" stroke-width="2.8" fill="none"/>
<path d="M 280,460 L 320,460 L 320,380 L 20,380 L 20,640 L 40,640" stroke="#0000b2" stroke-width="2.8" fill="none"/>
<path d="M 100,460 L 120,460" stroke="#0000b2" stroke-width="2.8" fill="none"/>
<path d="M -60,460 L -20,460 L -20,400 L -620,400 L -620,480 L -600,480" stroke="#0000b2" stroke-width="2.8" fill="none"/>
<path d="M -240,460 L -220,460 L -120,460" stroke="#0000b2" stroke-width="2.8" fill="none"/>
<path d="M -780,460 L -760,460" stroke="#0000b2" stroke-width="2.8" fill="none"/>
<path d="M 340,620 L 380,620 L 380,400 L 180,400 L 180,460 L 220,460" stroke="#0000b2" stroke-width="2.8" fill="none"/>
<path d="M -420,620 L -400,620 L -396,620" stroke="#0000b2" stroke-width="2.8" fill="none"/>
<path d="M -580,600 L -580,620 L -540,620 L -540,640" stroke="#0000b2" stroke-width="2.8" fill="none"/>
<path d="M -640,640 L -640,620 L -600,620 L -600,600" stroke="#0000b2" stroke-width="2.8" fill="none"/>
<path d="M -820,620 L -800,620" stroke="#0000b2" stroke-width="2.8" fill="none"/>
<path d="M -380,720 L -360,720" stroke="#0000b2" stroke-width="2.8" fill="none"/>
<path d="M 180,720 L 200,720" stroke="#0000b2" stroke-width="2.8" fill="none"/>
<path d="M -420,560 L -400,560" stroke="#0000b2" stroke-width="2.8" fill="none"/>
<path d="M -780,560 L -760,560" stroke="#0000b2" stroke-width="2.8" fill="none"/>
<path d="M -220,660 L -200,660 L -200,480 L -120,480" stroke="#0000b2" stroke-width="2.8" fill="none"/>
<path d="M 20,660 L 40,660" stroke="#0000b2" stroke-width="2.8" fill="none"/>
<path d="M -620,500 L -600,500" stroke="#0000b2" stroke-width="2.8" fill="none"/>
<path d="M 200,500 L 220,500" stroke="#0000b2" stroke-width="2.8" fill="none"/>
<path d="M 100,500 L 120,500" stroke="#0000b2" stroke-width="2.8" fill="none"/>
<path d="M -780,500 L -760,500" stroke="#0000b2" stroke-width="2.8" fill="none"/>
<path d="M -340,600 L -320,600 L -320,560 L -300,560" stroke="#0000b2" stroke-width="2.8" fill="none"/>
<path d="M -420,600 L -400,600 L -393,600" stroke="#0000b2" stroke-width="2.8" fill="none"/>
<path d="M -260,760 L -240,760 L -240,680" stroke="#0000b2" stroke-width="2.8" fill="none"/>
<path d="M 260,760 L 280,760 L 280,720 L 300,720" stroke="#0000b2" stroke-width="2.8" fill="none"/>
<path d="M 180,760 L 200,760 L 207,760" stroke="#0000b2" stroke-width="2.8" fill="none"/>
<path d="M -780,440 L -760,440" stroke="#0000b2" stroke-width="2.8" fill="none"/>
<path d="M -780,540 L -760,540" stroke="#0000b2" stroke-width="2.8" fill="none"/>
<path d="M -620,540 L -600,540" stroke="#0000b2" stroke-width="2.8" fill="none"/>
<path d="M 120,540 L 140,540 L 140,500" stroke="#0000b2" stroke-width="2.8" fill="none"/>
<path d="M -240,540 L -220,540 L -220,460" stroke="#0000b2" stroke-width="2.8" fill="none"/>
<path d="M -320,540 L -300,540" stroke="#0000b2" stroke-width="2.8" fill="none"/>
<path d="M 20,700 L 40,700" stroke="#0000b2" stroke-width="2.8" fill="none"/>
<path d="M 280,700 L 300,700" stroke="#0000b2" stroke-width="2.8" fill="none"/>
<path d="M 360,700 L 380,700 L 380,620" stroke="#0000b2" stroke-width="2.8" fill="none"/>
<path d="M -580,560 L -580,580" stroke="#0000b2" stroke-width="2.8" fill="none"/>
<path d="M -520,696 L -520,700 L -520,720" stroke="#0000b2" stroke-width="2.8" fill="none"/>
<path d="M -20,856 L -20,860 L -20,880" stroke="#0000b2" stroke-width="2.8" fill="none"/>
<path d="M -660,696 L -660,700 L -660,720" stroke="#0000b2" stroke-width="2.8" fill="none"/>
<path d="M 20,856 L 20,860 L 20,880" stroke="#0000b2" stroke-width="2.8" fill="none"/>
<path d="M 100,856 L 100,860 L 100,880" stroke="#0000b2" stroke-width="2.8" fill="none"/>
<path d="M -620,696 L -620,700 L -620,720" stroke="#0000b2" stroke-width="2.8" fill="none"/>
<path d="M -560,696 L -560,700 L -560,720" stroke="#0000b2" stroke-width="2.8" fill="none"/>
<path d="M 60,856 L 60,860 L 60,880" stroke="#0000b2" stroke-width="2.8" fill="none"/>
<path d="M 60,720 L 60,740" stroke="#0000b2" stroke-width="2.8" fill="none"/>
<path d="M -399,560 L -399,569" stroke="#000000" stroke-width="2.8" fill="none"/>
<path d="M -399,640 L -399,631" stroke="#000000" stroke-width="2.8" fill="none"/>
<path d="M 201,720 L 201,729" stroke="#000000" stroke-width="2.8" fill="none"/>
<path d="M 201,800 L 201,791" stroke="#000000" stroke-width="2.8" fill="none"/>
<path d="M -580,600 L -580,590 L -580,580" stroke="#000000" stroke-width="2.8" fill="none"/>
<path d="M -600,600 L -600,590" stroke="#000000" stroke-width="2.8" fill="none"/>
<path d="M 60,760 L 60,750 L 60,740" stroke="#000000" stroke-width="2.8" fill="none"/>
<path d="M 40,760 L 40,750" stroke="#000000" stroke-width="2.8" fill="none"/>
<path d="M -360,720 L -350,720 L -340,720" stroke="#000000" stroke-width="2.8" fill="none"/>
<path d="M -340,740 L -350,740" stroke="#000000" stroke-width="2.8" fill="none"/>
<g>
<circle cx="-220.0" cy="460.0" r="4.0" stroke="#0000b2" stroke-width="2.8" fill="#0000b2" />
<circle cx="380.0" cy="620.0" r="4.0" stroke="#0000b2" stroke-width="2.8" fill="#0000b2" />
</g>
<g>
<path d="M -760,500 L -746,508 L -746,492 Z" stroke="#000000" stroke-width="2.8" fill="none"/>
<text text-anchor="start" x="-741.0" y="506.75" fill="#808080" style="font-size:18px">REL</text>
<circle cx="-760.0" cy="500.0" r="2.0" stroke="#0000b2" stroke-width="2.8" fill="#0000b2" />
</g>
<g>
<path d="M -760,480 L -746,488 L -746,472 Z" stroke="#000000" stroke-width="2.8" fill="none"/>
<text text-anchor="start" x="-741.0" y="486.75" fill="#808080" style="font-size:18px">INC</text>
<circle cx="-760.0" cy="480.0" r="2.0" stroke="#0000b2" stroke-width="2.8" fill="#0000b2" />
</g>
<g>
<path d="M -760,440 L -746,448 L -746,432 Z" stroke="#000000" stroke-width="2.8" fill="none"/>
<text text-anchor="start" x="-741.0" y="446.75" fill="#808080" style="font-size:18px">LDH</text>
<circle cx="-760.0" cy="440.0" r="2.0" stroke="#0000b2" stroke-width="2.8" fill="#0000b2" />
</g>
<g>
<path d="M 221,450 L 279,450 L 279,510 L 221,510 Z" stroke="#000000" stroke-width="2.8" fill="none"/>
<text text-anchor="middle" x="250.0" y="442.0" fill="#000000" style="font-size:24px">PCADDL</text>
<text text-anchor="start" x="224.0" y="466.75" fill="#808080" style="font-size:18px">a</text>
<text text-anchor="start" x="224.0" y="486.75" fill="#808080" style="font-size:18px">b</text>
<text text-anchor="start" x="224.0" y="506.75" fill="#808080" style="font-size:18px">c<tspan style="font-size:80%;baseline-shift:sub;">i</tspan></text>
<text text-anchor="end" x="276.0" y="466.75" fill="#808080" style="font-size:18px">s</text>
<text text-anchor="end" x="276.0" y="486.75" fill="#808080" style="font-size:18px">c<tspan style="font-size:80%;baseline-shift:sub;">o</tspan></text>
<text text-anchor="middle" x="250.0" y="527.5" fill="#808080" style="font-size:18px">Add</text>
<circle cx="220.0" cy="460.0" r="2.0" stroke="#0000b2" stroke-width="2.8" fill="#0000b2" />
<circle cx="220.0" cy="480.0" r="2.0" stroke="#0000b2" stroke-width="2.8" fill="#0000b2" />
<circle cx="220.0" cy="500.0" r="2.0" stroke="#0000b2" stroke-width="2.8" fill="#0000b2" />
<circle cx="280.0" cy="460.0" r="2.0" stroke="#b20000" stroke-width="2.8" fill="#b20000" />
<circle cx="280.0" cy="480.0" r="2.0" stroke="#b20000" stroke-width="2.8" fill="#b20000" />
</g>
<g>
<text text-anchor="end" x="197.0" y="509.0" fill="#000000" style="font-size:24px">0</text>
<circle cx="200.0" cy="500.0" r="2.0" stroke="#b20000" stroke-width="2.8" fill="#b20000" />
</g>
<g>
<path d="M -119,450 L -61,450 L -61,510 L -119,510 Z" stroke="#000000" stroke-width="2.8" fill="none"/>
<text text-anchor="middle" x="-90.0" y="442.0" fill="#000000" style="font-size:24px">PCADDH</text>
<text text-anchor="start" x="-116.0" y="466.75" fill="#808080" style="font-size:18px">a</text>
<text text-anchor="start" x="-116.0" y="486.75" fill="#808080" style="font-size:18px">b</text>
<text text-anchor="start" x="-116.0" y="506.75" fill="#808080" style="font-size:18px">c<tspan style="font-size:80%;baseline-shift:sub;">i</tspan></text>
<text text-anchor="end" x="-64.0" y="466.75" fill="#808080" style="font-size:18px">s</text>
<text text-anchor="end" x="-64.0" y="486.75" fill="#808080" style="font-size:18px">c<tspan style="font-size:80%;baseline-shift:sub;">o</tspan></text>
<text text-anchor="middle" x="-90.0" y="527.5" fill="#808080" style="font-size:18px">Add</text>
<circle cx="-120.0" cy="460.0" r="2.0" stroke="#0000b2" stroke-width="2.8" fill="#0000b2" />
<circle cx="-120.0" cy="480.0" r="2.0" stroke="#0000b2" stroke-width="2.8" fill="#0000b2" />
<circle cx="-120.0" cy="500.0" r="2.0" stroke="#0000b2" stroke-width="2.8" fill="#0000b2" />
<circle cx="-60.0" cy="460.0" r="2.0" stroke="#b20000" stroke-width="2.8" fill="#b20000" />
<circle cx="-60.0" cy="480.0" r="2.0" stroke="#b20000" stroke-width="2.8" fill="#b20000" />
</g>
<g>
<path d="M 121,456 L 159,465 L 159,495 L 121,504 Z" stroke="#000000" stroke-width="2.8" fill="none"/>
<text text-anchor="start" x="123.0" y="475.5" fill="#808080" style="font-size:18px">0</text>
<circle cx="140.0" cy="500.0" r="2.0" stroke="#0000b2" stroke-width="2.8" fill="#0000b2" />
<circle cx="120.0" cy="460.0" r="2.0" stroke="#0000b2" stroke-width="2.8" fill="#0000b2" />
<circle cx="120.0" cy="500.0" r="2.0" stroke="#0000b2" stroke-width="2.8" fill="#0000b2" />
<circle cx="160.0" cy="480.0" r="2.0" stroke="#b20000" stroke-width="2.8" fill="#b20000" />
</g>
<g>
<text text-anchor="end" x="97.0" y="509.0" fill="#000000" style="font-size:24px">1</text>
<circle cx="100.0" cy="500.0" r="2.0" stroke="#b20000" stroke-width="2.8" fill="#b20000" />
</g>
<g>
<path d="M 120,540 L 106,532 L 106,548 Z" stroke="#000000" stroke-width="2.8" fill="none"/>
<text text-anchor="end" x="101.0" y="546.75" fill="#808080" style="font-size:18px">INC</text>
<circle cx="120.0" cy="540.0" r="2.0" stroke="#0000b2" stroke-width="2.8" fill="#0000b2" />
</g>
<g>
<path d="M 100,460 L 86,452 L 86,468 Z" stroke="#000000" stroke-width="2.8" fill="none"/>
<text text-anchor="end" x="81.0" y="466.75" fill="#808080" style="font-size:18px">D</text>
<circle cx="100.0" cy="460.0" r="2.0" stroke="#0000b2" stroke-width="2.8" fill="#0000b2" />
</g>
<g>
<path d="M 301,670 L 359,670 L 359,730 L 301,730 Z" stroke="#000000" stroke-width="2.8" fill="none"/>
<text text-anchor="middle" x="330.0" y="662.0" fill="#000000" style="font-size:24px">PCL</text>
<text text-anchor="start" x="304.0" y="686.75" fill="#808080" style="font-size:18px">D</text>
<path d="M 301,707 L 308,700 L 301,693" stroke="#000000" stroke-width="1.4" fill="none"/>
<text text-anchor="start" x="311.0" y="706.75" fill="#808080" style="font-size:18px">C</text>
<text text-anchor="start" x="304.0" y="726.75" fill="#808080" style="font-size:18px">en</text>
<text text-anchor="end" x="356.0" y="706.75" fill="#808080" style="font-size:18px">Q</text>
<text text-anchor="middle" x="330.0" y="747.5" fill="#808080" style="font-size:18px">Reg</text>
<circle cx="300.0" cy="680.0" r="2.0" stroke="#0000b2" stroke-width="2.8" fill="#0000b2" />
<circle cx="300.0" cy="700.0" r="2.0" stroke="#0000b2" stroke-width="2.8" fill="#0000b2" />
<circle cx="300.0" cy="720.0" r="2.0" stroke="#0000b2" stroke-width="2.8" fill="#0000b2" />
<circle cx="360.0" cy="700.0" r="2.0" stroke="#b20000" stroke-width="2.8" fill="#b20000" />
</g>
<g>
<path d="M 280,700 L 266,692 L 266,708 Z" stroke="#000000" stroke-width="2.8" fill="none"/>
<text text-anchor="end" x="261.0" y="706.75" fill="#808080" style="font-size:18px">C</text>
<circle cx="280.0" cy="700.0" r="2.0" stroke="#0000b2" stroke-width="2.8" fill="#0000b2" />
</g>
<g>
<path d="M -299,510 L -241,510 L -241,570 L -299,570 Z" stroke="#000000" stroke-width="2.8" fill="none"/>
<text text-anchor="middle" x="-270.0" y="502.0" fill="#000000" style="font-size:24px">PCH</text>
<text text-anchor="start" x="-296.0" y="526.75" fill="#808080" style="font-size:18px">D</text>
<path d="M -299,547 L -292,540 L -299,533" stroke="#000000" stroke-width="1.4" fill="none"/>
<text text-anchor="start" x="-289.0" y="546.75" fill="#808080" style="font-size:18px">C</text>
<text text-anchor="start" x="-296.0" y="566.75" fill="#808080" style="font-size:18px">en</text>
<text text-anchor="end" x="-244.0" y="546.75" fill="#808080" style="font-size:18px">Q</text>
<text text-anchor="middle" x="-270.0" y="587.5" fill="#808080" style="font-size:18px">Reg</text>
<circle cx="-300.0" cy="520.0" r="2.0" stroke="#0000b2" stroke-width="2.8" fill="#0000b2" />
<circle cx="-300.0" cy="540.0" r="2.0" stroke="#0000b2" stroke-width="2.8" fill="#0000b2" />
<circle cx="-300.0" cy="560.0" r="2.0" stroke="#0000b2" stroke-width="2.8" fill="#0000b2" />
<circle cx="-240.0" cy="540.0" r="2.0" stroke="#b20000" stroke-width="2.8" fill="#b20000" />
</g>
<g>
<path d="M -320,540 L -334,532 L -334,548 Z" stroke="#000000" stroke-width="2.8" fill="none"/>
<text text-anchor="end" x="-339.0" y="546.75" fill="#808080" style="font-size:18px">C</text>
<circle cx="-320.0" cy="540.0" r="2.0" stroke="#0000b2" stroke-width="2.8" fill="#0000b2" />
</g>
<g>
<path d="M -599,476 L -561,485 L -561,555 L -599,564 Z" stroke="#000000" stroke-width="2.8" fill="none"/>
<text text-anchor="start" x="-597.0" y="495.5" fill="#808080" style="font-size:18px">0</text>
<circle cx="-580.0" cy="560.0" r="2.0" stroke="#0000b2" stroke-width="2.8" fill="#0000b2" />
<circle cx="-600.0" cy="480.0" r="2.0" stroke="#0000b2" stroke-width="2.8" fill="#0000b2" />
<circle cx="-600.0" cy="500.0" r="2.0" stroke="#0000b2" stroke-width="2.8" fill="#0000b2" />
<circle cx="-600.0" cy="520.0" r="2.0" stroke="#0000b2" stroke-width="2.8" fill="#0000b2" />
<circle cx="-600.0" cy="540.0" r="2.0" stroke="#0000b2" stroke-width="2.8" fill="#0000b2" />
<circle cx="-560.0" cy="520.0" r="2.0" stroke="#b20000" stroke-width="2.8" fill="#b20000" />
</g>
<g>
<path d="M -760,460 L -746,468 L -746,452 Z" stroke="#000000" stroke-width="2.8" fill="none"/>
<text text-anchor="start" x="-741.0" y="466.75" fill="#808080" style="font-size:18px">LDL</text>
<circle cx="-760.0" cy="460.0" r="2.0" stroke="#0000b2" stroke-width="2.8" fill="#0000b2" />
</g>
<g>
<path d="M -240,460 L -254,452 L -254,468 Z" stroke="#000000" stroke-width="2.8" fill="none"/>
<text text-anchor="end" x="-259.0" y="466.75" fill="#808080" style="font-size:18px">QH</text>
<circle cx="-240.0" cy="460.0" r="2.0" stroke="#0000b2" stroke-width="2.8" fill="#0000b2" />
</g>
<g>
<path d="M -760,520 L -746,528 L -746,512 Z" stroke="#000000" stroke-width="2.8" fill="none"/>
<text text-anchor="start" x="-741.0" y="526.75" fill="#808080" style="font-size:18px">D</text>
<circle cx="-760.0" cy="520.0" r="2.0" stroke="#0000b2" stroke-width="2.8" fill="#0000b2" />
</g>
<g>
<path d="M 340,620 L 326,612 L 326,628 Z" stroke="#000000" stroke-width="2.8" fill="none"/>
<text text-anchor="end" x="321.0" y="626.75" fill="#808080" style="font-size:18px">QL</text>
<circle cx="340.0" cy="620.0" r="2.0" stroke="#0000b2" stroke-width="2.8" fill="#0000b2" />
</g>
<g>
<path d="M -620,500 L -634,492 L -634,508 Z" stroke="#000000" stroke-width="2.8" fill="none"/>
<text text-anchor="end" x="-639.0" y="506.75" fill="#808080" style="font-size:18px">D</text>
<circle cx="-620.0" cy="500.0" r="2.0" stroke="#0000b2" stroke-width="2.8" fill="#0000b2" />
</g>
<g>
<path d="M -390,630 L -400,630 C -390,620 -390,580 -400,570 L -390,570 C -380,570 -360,580 -340,600 C -360,620 -380,630 -390,630 Z" stroke="#000000" stroke-width="2.8" fill="none"/>
<circle cx="-400.0" cy="560.0" r="2.0" stroke="#0000b2" stroke-width="2.8" fill="#0000b2" />
<circle cx="-400.0" cy="580.0" r="2.0" stroke="#0000b2" stroke-width="2.8" fill="#0000b2" />
<circle cx="-400.0" cy="600.0" r="2.0" stroke="#0000b2" stroke-width="2.8" fill="#0000b2" />
<circle cx="-400.0" cy="620.0" r="2.0" stroke="#0000b2" stroke-width="2.8" fill="#0000b2" />
<circle cx="-400.0" cy="640.0" r="2.0" stroke="#0000b2" stroke-width="2.8" fill="#0000b2" />
<circle cx="-340.0" cy="600.0" r="2.0" stroke="#b20000" stroke-width="2.8" fill="#b20000" />
</g>
<g>
<path d="M -420,560 L -434,552 L -434,568 Z" stroke="#000000" stroke-width="2.8" fill="none"/>
<text text-anchor="end" x="-439.0" y="566.75" fill="#808080" style="font-size:18px">INC</text>
<circle cx="-420.0" cy="560.0" r="2.0" stroke="#0000b2" stroke-width="2.8" fill="#0000b2" />
</g>
<g>
<path d="M -420,580 L -434,572 L -434,588 Z" stroke="#000000" stroke-width="2.8" fill="none"/>
<text text-anchor="end" x="-439.0" y="586.75" fill="#808080" style="font-size:18px">REL</text>
<circle cx="-420.0" cy="580.0" r="2.0" stroke="#0000b2" stroke-width="2.8" fill="#0000b2" />
</g>
<g>
<path d="M -801,430 L -781,430 L -781,450 L -801,450 Z" stroke="#000000" stroke-width="2.8" fill="none"/>
<circle cx="-791.0" cy="440.0" r="4.0" stroke="#000000" stroke-width="1.4" fill="none" />
<text text-anchor="end" x="-810.0" y="449.0" fill="#000000" style="font-size:24px"><tspan style="font-style:italic;">LDH</tspan></text>
<circle cx="-780.0" cy="440.0" r="2.0" stroke="#b20000" stroke-width="2.8" fill="#b20000" />
</g>
<g>
<path d="M -801,450 L -781,450 L -781,470 L -801,470 Z" stroke="#000000" stroke-width="2.8" fill="none"/>
<circle cx="-791.0" cy="460.0" r="4.0" stroke="#000000" stroke-width="1.4" fill="none" />
<text text-anchor="end" x="-810.0" y="469.0" fill="#000000" style="font-size:24px"><tspan style="font-style:italic;">LDL</tspan></text>
<circle cx="-780.0" cy="460.0" r="2.0" stroke="#b20000" stroke-width="2.8" fill="#b20000" />
</g>
<g>
<path d="M -801,470 L -781,470 L -781,490 L -801,490 Z" stroke="#000000" stroke-width="2.8" fill="none"/>
<circle cx="-791.0" cy="480.0" r="4.0" stroke="#000000" stroke-width="1.4" fill="none" />
<text text-anchor="end" x="-810.0" y="489.0" fill="#000000" style="font-size:24px"><tspan style="font-style:italic;">INC</tspan></text>
<circle cx="-780.0" cy="480.0" r="2.0" stroke="#b20000" stroke-width="2.8" fill="#b20000" />
</g>
<g>
<path d="M -801,490 L -781,490 L -781,510 L -801,510 Z" stroke="#000000" stroke-width="2.8" fill="none"/>
<circle cx="-791.0" cy="500.0" r="4.0" stroke="#000000" stroke-width="1.4" fill="none" />
<text text-anchor="end" x="-810.0" y="509.0" fill="#000000" style="font-size:24px"><tspan style="font-style:italic;">REL</tspan></text>
<circle cx="-780.0" cy="500.0" r="2.0" stroke="#b20000" stroke-width="2.8" fill="#b20000" />
</g>
<g>
<path d="M -801,510 L -781,510 L -781,530 L -801,530 Z" stroke="#000000" stroke-width="2.8" fill="none"/>
<circle cx="-791.0" cy="520.0" r="4.0" stroke="#000000" stroke-width="1.4" fill="none" />
<text text-anchor="end" x="-810.0" y="529.0" fill="#000000" style="font-size:24px"><tspan style="font-style:italic;">D</tspan></text>
<circle cx="-780.0" cy="520.0" r="2.0" stroke="#b20000" stroke-width="2.8" fill="#b20000" />
</g>
<g>
<circle cx="-789.0" cy="620.0" r="4.0" stroke="#000000" stroke-width="1.4" fill="none" />
<circle cx="-789.0" cy="620.0" r="10.0" stroke="#000000" stroke-width="2.8" fill="none" />
<text text-anchor="start" x="-770.0" y="629.0" fill="#000000" style="font-size:24px"><tspan style="font-style:italic;">QH</tspan></text>
<circle cx="-800.0" cy="620.0" r="2.0" stroke="#0000b2" stroke-width="2.8" fill="#0000b2" />
</g>
<g>
<path d="M -820,620 L -834,612 L -834,628 Z" stroke="#000000" stroke-width="2.8" fill="none"/>
<text text-anchor="end" x="-839.0" y="626.75" fill="#808080" style="font-size:18px">QH</text>
<circle cx="-820.0" cy="620.0" r="2.0" stroke="#0000b2" stroke-width="2.8" fill="#0000b2" />
</g>
<g>
<path d="M -820,640 L -834,632 L -834,648 Z" stroke="#000000" stroke-width="2.8" fill="none"/>
<text text-anchor="end" x="-839.0" y="646.75" fill="#808080" style="font-size:18px">QL</text>
<circle cx="-820.0" cy="640.0" r="2.0" stroke="#0000b2" stroke-width="2.8" fill="#0000b2" />
</g>
<g>
<circle cx="-789.0" cy="640.0" r="4.0" stroke="#000000" stroke-width="1.4" fill="none" />
<circle cx="-789.0" cy="640.0" r="10.0" stroke="#000000" stroke-width="2.8" fill="none" />
<text text-anchor="start" x="-770.0" y="649.0" fill="#000000" style="font-size:24px"><tspan style="font-style:italic;">QL</tspan></text>
<circle cx="-800.0" cy="640.0" r="2.0" stroke="#0000b2" stroke-width="2.8" fill="#0000b2" />
</g>
<g>
<path d="M -801,410 L -781,410 L -781,430 L -801,430 Z" stroke="#000000" stroke-width="2.8" fill="none"/>
<text text-anchor="end" x="-810.0" y="429.0" fill="#000000" style="font-size:24px"><tspan style="font-style:italic;">C</tspan></text>
<path d="M -796,423 L -793,423 L -793,417 L -790,417 L -790,423 L -787,423 L -787,417 L -784,417" stroke="#000000" stroke-width="1.4" fill="none"/>
<circle cx="-780.0" cy="420.0" r="2.0" stroke="#b20000" stroke-width="2.8" fill="#b20000" />
</g>
<g>
<path d="M -760,420 L -746,428 L -746,412 Z" stroke="#000000" stroke-width="2.8" fill="none"/>
<text text-anchor="start" x="-741.0" y="426.75" fill="#808080" style="font-size:18px">C</text>
<circle cx="-760.0" cy="420.0" r="2.0" stroke="#0000b2" stroke-width="2.8" fill="#0000b2" />
</g>
<g>
<path d="M -760,540 L -746,548 L -746,532 Z" stroke="#000000" stroke-width="2.8" fill="none"/>
<text text-anchor="start" x="-741.0" y="546.75" fill="#808080" style="font-size:18px">RESET</text>
<circle cx="-760.0" cy="540.0" r="2.0" stroke="#0000b2" stroke-width="2.8" fill="#0000b2" />
</g>
<g>
<path d="M -801,530 L -781,530 L -781,550 L -801,550 Z" stroke="#000000" stroke-width="2.8" fill="none"/>
<circle cx="-791.0" cy="540.0" r="4.0" stroke="#000000" stroke-width="1.4" fill="none" />
<text text-anchor="end" x="-810.0" y="549.0" fill="#000000" style="font-size:24px"><tspan style="font-style:italic;">RESET</tspan></text>
<circle cx="-780.0" cy="540.0" r="2.0" stroke="#b20000" stroke-width="2.8" fill="#b20000" />
</g>
<g>
<path d="M 210,790 L 200,790 C 210,780 210,740 200,730 L 210,730 C 220,730 240,740 260,760 C 240,780 220,790 210,790 Z" stroke="#000000" stroke-width="2.8" fill="none"/>
<circle cx="200.0" cy="720.0" r="2.0" stroke="#0000b2" stroke-width="2.8" fill="#0000b2" />
<circle cx="200.0" cy="740.0" r="2.0" stroke="#0000b2" stroke-width="2.8" fill="#0000b2" />
<circle cx="200.0" cy="760.0" r="2.0" stroke="#0000b2" stroke-width="2.8" fill="#0000b2" />
<circle cx="200.0" cy="780.0" r="2.0" stroke="#0000b2" stroke-width="2.8" fill="#0000b2" />
<circle cx="200.0" cy="800.0" r="2.0" stroke="#0000b2" stroke-width="2.8" fill="#0000b2" />
<circle cx="260.0" cy="760.0" r="2.0" stroke="#b20000" stroke-width="2.8" fill="#b20000" />
</g>
<g>
<path d="M 180,720 L 166,712 L 166,728 Z" stroke="#000000" stroke-width="2.8" fill="none"/>
<text text-anchor="end" x="161.0" y="726.75" fill="#808080" style="font-size:18px">INC</text>
<circle cx="180.0" cy="720.0" r="2.0" stroke="#0000b2" stroke-width="2.8" fill="#0000b2" />
</g>
<g>
<path d="M 180,740 L 166,732 L 166,748 Z" stroke="#000000" stroke-width="2.8" fill="none"/>
<text text-anchor="end" x="161.0" y="746.75" fill="#808080" style="font-size:18px">REL</text>
<circle cx="180.0" cy="740.0" r="2.0" stroke="#0000b2" stroke-width="2.8" fill="#0000b2" />
</g>
<g>
<text text-anchor="end" x="-623.0" y="529.0" fill="#000000" style="font-size:24px">FF</text>
<circle cx="-620.0" cy="520.0" r="2.0" stroke="#b20000" stroke-width="2.8" fill="#b20000" />
</g>
<g>
<text text-anchor="end" x="-623.0" y="549.0" fill="#000000" style="font-size:24px">FF</text>
<circle cx="-620.0" cy="540.0" r="2.0" stroke="#b20000" stroke-width="2.8" fill="#b20000" />
</g>
<g>
<text text-anchor="end" x="-577.0" y="611.0" fill="#808080" style="font-size:12px" transform="rotate(-90,-577.0,602.0)" >0</text>
<text text-anchor="end" x="-597.0" y="611.0" fill="#808080" style="font-size:12px" transform="rotate(-90,-597.0,602.0)" >1</text>
<text text-anchor="start" x="-577.0" y="587.0" fill="#808080" style="font-size:12px" transform="rotate(-90,-577.0,578.0)" >0,1</text>
<path d="M -578,592 L -578,588 L -602,588 L -602,592 Z" stroke="#000000" stroke-width="2.8" fill="#000000" fill-opacity="1.0"/>
<circle cx="-580.0" cy="600.0" r="2.0" stroke="#0000b2" stroke-width="2.8" fill="#0000b2" />
<circle cx="-600.0" cy="600.0" r="2.0" stroke="#0000b2" stroke-width="2.8" fill="#0000b2" />
<circle cx="-580.0" cy="580.0" r="2.0" stroke="#b20000" stroke-width="2.8" fill="#b20000" />
</g>
<g>
<path d="M 41,636 L 79,645 L 79,715 L 41,724 Z" stroke="#000000" stroke-width="2.8" fill="none"/>
<text text-anchor="start" x="43.0" y="655.5" fill="#808080" style="font-size:18px">0</text>
<circle cx="60.0" cy="720.0" r="2.0" stroke="#0000b2" stroke-width="2.8" fill="#0000b2" />
<circle cx="40.0" cy="640.0" r="2.0" stroke="#0000b2" stroke-width="2.8" fill="#0000b2" />
<circle cx="40.0" cy="660.0" r="2.0" stroke="#0000b2" stroke-width="2.8" fill="#0000b2" />
<circle cx="40.0" cy="680.0" r="2.0" stroke="#0000b2" stroke-width="2.8" fill="#0000b2" />
<circle cx="40.0" cy="700.0" r="2.0" stroke="#0000b2" stroke-width="2.8" fill="#0000b2" />
<circle cx="80.0" cy="680.0" r="2.0" stroke="#b20000" stroke-width="2.8" fill="#b20000" />
</g>
<g>
<path d="M 20,660 L 6,652 L 6,668 Z" stroke="#000000" stroke-width="2.8" fill="none"/>
<text text-anchor="end" x="1.0" y="666.75" fill="#808080" style="font-size:18px">D</text>
<circle cx="20.0" cy="660.0" r="2.0" stroke="#0000b2" stroke-width="2.8" fill="#0000b2" />
</g>
<g>
<text text-anchor="end" x="17.0" y="689.0" fill="#000000" style="font-size:24px">FC</text>
<circle cx="20.0" cy="680.0" r="2.0" stroke="#b20000" stroke-width="2.8" fill="#b20000" />
</g>
<g>
<text text-anchor="end" x="17.0" y="709.0" fill="#000000" style="font-size:24px">FE</text>
<circle cx="20.0" cy="700.0" r="2.0" stroke="#b20000" stroke-width="2.8" fill="#b20000" />
</g>
<g>
<text text-anchor="end" x="63.0" y="771.0" fill="#808080" style="font-size:12px" transform="rotate(-90,63.0,762.0)" >0</text>
<text text-anchor="end" x="43.0" y="771.0" fill="#808080" style="font-size:12px" transform="rotate(-90,43.0,762.0)" >1</text>
<text text-anchor="start" x="63.0" y="747.0" fill="#808080" style="font-size:12px" transform="rotate(-90,63.0,738.0)" >0,1</text>
<path d="M 62,752 L 62,748 L 38,748 L 38,752 Z" stroke="#000000" stroke-width="2.8" fill="#000000" fill-opacity="1.0"/>
<circle cx="60.0" cy="760.0" r="2.0" stroke="#0000b2" stroke-width="2.8" fill="#0000b2" />
<circle cx="40.0" cy="760.0" r="2.0" stroke="#0000b2" stroke-width="2.8" fill="#0000b2" />
<circle cx="60.0" cy="740.0" r="2.0" stroke="#b20000" stroke-width="2.8" fill="#b20000" />
</g>
<g>
<path d="M -259,636 L -221,645 L -221,675 L -259,684 Z" stroke="#000000" stroke-width="2.8" fill="none"/>
<text text-anchor="start" x="-257.0" y="655.5" fill="#808080" style="font-size:18px">0</text>
<circle cx="-240.0" cy="680.0" r="2.0" stroke="#0000b2" stroke-width="2.8" fill="#0000b2" />
<circle cx="-260.0" cy="640.0" r="2.0" stroke="#0000b2" stroke-width="2.8" fill="#0000b2" />
<circle cx="-260.0" cy="680.0" r="2.0" stroke="#0000b2" stroke-width="2.8" fill="#0000b2" />
<circle cx="-220.0" cy="660.0" r="2.0" stroke="#b20000" stroke-width="2.8" fill="#b20000" />
</g>
<g>
<text text-anchor="end" x="-283.0" y="689.0" fill="#000000" style="font-size:24px">FF</text>
<circle cx="-280.0" cy="680.0" r="2.0" stroke="#b20000" stroke-width="2.8" fill="#b20000" />
</g>
<g>
<text text-anchor="end" x="-283.0" y="649.0" fill="#000000" style="font-size:24px">0</text>
<circle cx="-280.0" cy="640.0" r="2.0" stroke="#b20000" stroke-width="2.8" fill="#b20000" />
</g>
<g>
<path d="M -380,720 L -394,712 L -394,728 Z" stroke="#000000" stroke-width="2.8" fill="none"/>
<text text-anchor="end" x="-399.0" y="726.75" fill="#808080" style="font-size:18px">D</text>
<circle cx="-380.0" cy="720.0" r="2.0" stroke="#0000b2" stroke-width="2.8" fill="#0000b2" />
</g>
<g>
<text text-anchor="end" x="-362.0" y="717.0" fill="#808080" style="font-size:12px">0-7</text>
<text text-anchor="start" x="-338.0" y="717.0" fill="#808080" style="font-size:12px">0-6</text>
<text text-anchor="start" x="-338.0" y="737.0" fill="#808080" style="font-size:12px">7</text>
<path d="M -352,718 L -348,718 L -348,742 L -352,742 Z" stroke="#000000" stroke-width="2.8" fill="#000000" fill-opacity="1.0"/>
<circle cx="-360.0" cy="720.0" r="2.0" stroke="#0000b2" stroke-width="2.8" fill="#0000b2" />
<circle cx="-340.0" cy="720.0" r="2.0" stroke="#b20000" stroke-width="2.8" fill="#b20000" />
<circle cx="-340.0" cy="740.0" r="2.0" stroke="#b20000" stroke-width="2.8" fill="#b20000" />
</g>
<g>
<path d="M -290,790 L -319,790 L -319,730 L -290,730 C -280,730 -260,740 -261,760 C -261,780 -280,790 -290,790 Z" stroke="#000000" stroke-width="2.8" fill="none"/>
<circle cx="-320.0" cy="740.0" r="2.0" stroke="#0000b2" stroke-width="2.8" fill="#0000b2" />
<circle cx="-320.0" cy="780.0" r="2.0" stroke="#0000b2" stroke-width="2.8" fill="#0000b2" />
<circle cx="-260.0" cy="760.0" r="2.0" stroke="#b20000" stroke-width="2.8" fill="#b20000" />
</g>
<g>
<path d="M -340,780 L -354,772 L -354,788 Z" stroke="#000000" stroke-width="2.8" fill="none"/>
<text text-anchor="end" x="-359.0" y="786.75" fill="#808080" style="font-size:18px">REL</text>
<circle cx="-340.0" cy="780.0" r="2.0" stroke="#0000b2" stroke-width="2.8" fill="#0000b2" />
</g>
<g>
<path d="M -760,560 L -746,568 L -746,552 Z" stroke="#000000" stroke-width="2.8" fill="none"/>
<text text-anchor="start" x="-741.0" y="566.75" fill="#808080" style="font-size:18px">IRQ</text>
<circle cx="-760.0" cy="560.0" r="2.0" stroke="#0000b2" stroke-width="2.8" fill="#0000b2" />
</g>
<g>
<path d="M -801,550 L -781,550 L -781,570 L -801,570 Z" stroke="#000000" stroke-width="2.8" fill="none"/>
<circle cx="-791.0" cy="560.0" r="4.0" stroke="#000000" stroke-width="1.4" fill="none" />
<text text-anchor="end" x="-810.0" y="569.0" fill="#000000" style="font-size:24px"><tspan style="font-style:italic;">IRQ</tspan></text>
<circle cx="-780.0" cy="560.0" r="2.0" stroke="#b20000" stroke-width="2.8" fill="#b20000" />
</g>
<g>
<path d="M -420,600 L -434,592 L -434,608 Z" stroke="#000000" stroke-width="2.8" fill="none"/>
<text text-anchor="end" x="-439.0" y="606.75" fill="#808080" style="font-size:18px">LDH</text>
<circle cx="-420.0" cy="600.0" r="2.0" stroke="#0000b2" stroke-width="2.8" fill="#0000b2" />
</g>
<g>
<path d="M -420,620 L -434,612 L -434,628 Z" stroke="#000000" stroke-width="2.8" fill="none"/>
<text text-anchor="end" x="-439.0" y="626.75" fill="#808080" style="font-size:18px">RESET</text>
<circle cx="-420.0" cy="620.0" r="2.0" stroke="#0000b2" stroke-width="2.8" fill="#0000b2" />
</g>
<g>
<path d="M -420,640 L -434,632 L -434,648 Z" stroke="#000000" stroke-width="2.8" fill="none"/>
<text text-anchor="end" x="-439.0" y="646.75" fill="#808080" style="font-size:18px">IRQ</text>
<circle cx="-420.0" cy="640.0" r="2.0" stroke="#0000b2" stroke-width="2.8" fill="#0000b2" />
</g>
<g>
<path d="M 180,800 L 166,792 L 166,808 Z" stroke="#000000" stroke-width="2.8" fill="none"/>
<text text-anchor="end" x="161.0" y="806.75" fill="#808080" style="font-size:18px">IRQ</text>
<circle cx="180.0" cy="800.0" r="2.0" stroke="#0000b2" stroke-width="2.8" fill="#0000b2" />
</g>
<g>
<path d="M 180,760 L 166,752 L 166,768 Z" stroke="#000000" stroke-width="2.8" fill="none"/>
<text text-anchor="end" x="161.0" y="766.75" fill="#808080" style="font-size:18px">LDL</text>
<circle cx="180.0" cy="760.0" r="2.0" stroke="#0000b2" stroke-width="2.8" fill="#0000b2" />
</g>
<g>
<path d="M 180,780 L 166,772 L 166,788 Z" stroke="#000000" stroke-width="2.8" fill="none"/>
<text text-anchor="end" x="161.0" y="786.75" fill="#808080" style="font-size:18px">RESET</text>
<circle cx="180.0" cy="780.0" r="2.0" stroke="#0000b2" stroke-width="2.8" fill="#0000b2" />
</g>
<g>
<path d="M -660,720 L -668,734 L -652,734 Z" stroke="#000000" stroke-width="2.8" fill="none"/>
<text text-anchor="end" x="-660.0" y="745.75" fill="#808080" style="font-size:18px" transform="rotate(-90,-660.0,739.0)" >IRQ</text>
<circle cx="-660.0" cy="720.0" r="2.0" stroke="#0000b2" stroke-width="2.8" fill="#0000b2" />
</g>
<g>
<path d="M -510,690 L -510,700 C -520,690 -560,690 -570,700 L -570,690 C -570,680 -560,660 -540,640 C -520,660 -510,680 -510,690 Z" stroke="#000000" stroke-width="2.8" fill="none"/>
<circle cx="-560.0" cy="700.0" r="2.0" stroke="#0000b2" stroke-width="2.8" fill="#0000b2" />
<circle cx="-520.0" cy="700.0" r="2.0" stroke="#0000b2" stroke-width="2.8" fill="#0000b2" />
<circle cx="-540.0" cy="640.0" r="2.0" stroke="#b20000" stroke-width="2.8" fill="#b20000" />
</g>
<g>
<path d="M -520,720 L -528,734 L -512,734 Z" stroke="#000000" stroke-width="2.8" fill="none"/>
<text text-anchor="end" x="-520.0" y="745.75" fill="#808080" style="font-size:18px" transform="rotate(-90,-520.0,739.0)" >LDH</text>
<circle cx="-520.0" cy="720.0" r="2.0" stroke="#0000b2" stroke-width="2.8" fill="#0000b2" />
</g>
<g>
<path d="M -610,690 L -610,700 C -620,690 -660,690 -670,700 L -670,690 C -670,680 -660,660 -640,640 C -620,660 -610,680 -610,690 Z" stroke="#000000" stroke-width="2.8" fill="none"/>
<circle cx="-660.0" cy="700.0" r="2.0" stroke="#0000b2" stroke-width="2.8" fill="#0000b2" />
<circle cx="-620.0" cy="700.0" r="2.0" stroke="#0000b2" stroke-width="2.8" fill="#0000b2" />
<circle cx="-640.0" cy="640.0" r="2.0" stroke="#b20000" stroke-width="2.8" fill="#b20000" />
</g>
<g>
<path d="M -620,720 L -628,734 L -612,734 Z" stroke="#000000" stroke-width="2.8" fill="none"/>
<text text-anchor="end" x="-620.0" y="745.75" fill="#808080" style="font-size:18px" transform="rotate(-90,-620.0,739.0)" >RESET</text>
<circle cx="-620.0" cy="720.0" r="2.0" stroke="#0000b2" stroke-width="2.8" fill="#0000b2" />
</g>
<g>
<path d="M -560,720 L -568,734 L -552,734 Z" stroke="#000000" stroke-width="2.8" fill="none"/>
<text text-anchor="end" x="-560.0" y="745.75" fill="#808080" style="font-size:18px" transform="rotate(-90,-560.0,739.0)" >IRQ</text>
<circle cx="-560.0" cy="720.0" r="2.0" stroke="#0000b2" stroke-width="2.8" fill="#0000b2" />
</g>
<g>
<path d="M -20,880 L -28,894 L -12,894 Z" stroke="#000000" stroke-width="2.8" fill="none"/>
<text text-anchor="end" x="-20.0" y="905.75" fill="#808080" style="font-size:18px" transform="rotate(-90,-20.0,899.0)" >IRQ</text>
<circle cx="-20.0" cy="880.0" r="2.0" stroke="#0000b2" stroke-width="2.8" fill="#0000b2" />
</g>
<g>
<path d="M 30,850 L 30,860 C 20,850 -20,850 -30,860 L -30,850 C -30,840 -20,820 0,800 C 20,820 30,840 30,850 Z" stroke="#000000" stroke-width="2.8" fill="none"/>
<circle cx="-20.0" cy="860.0" r="2.0" stroke="#0000b2" stroke-width="2.8" fill="#0000b2" />
<circle cx="20.0" cy="860.0" r="2.0" stroke="#0000b2" stroke-width="2.8" fill="#0000b2" />
<circle cx="0.0" cy="800.0" r="2.0" stroke="#b20000" stroke-width="2.8" fill="#b20000" />
</g>
<g>
<path d="M 20,880 L 12,894 L 28,894 Z" stroke="#000000" stroke-width="2.8" fill="none"/>
<text text-anchor="end" x="20.0" y="905.75" fill="#808080" style="font-size:18px" transform="rotate(-90,20.0,899.0)" >RESET</text>
<circle cx="20.0" cy="880.0" r="2.0" stroke="#0000b2" stroke-width="2.8" fill="#0000b2" />
</g>
<g>
<path d="M 110,850 L 110,860 C 100,850 60,850 50,860 L 50,850 C 50,840 60,820 80,800 C 100,820 110,840 110,850 Z" stroke="#000000" stroke-width="2.8" fill="none"/>
<circle cx="60.0" cy="860.0" r="2.0" stroke="#0000b2" stroke-width="2.8" fill="#0000b2" />
<circle cx="100.0" cy="860.0" r="2.0" stroke="#0000b2" stroke-width="2.8" fill="#0000b2" />
<circle cx="80.0" cy="800.0" r="2.0" stroke="#b20000" stroke-width="2.8" fill="#b20000" />
</g>
<g>
<path d="M 60,880 L 52,894 L 68,894 Z" stroke="#000000" stroke-width="2.8" fill="none"/>
<text text-anchor="end" x="60.0" y="905.75" fill="#808080" style="font-size:18px" transform="rotate(-90,60.0,899.0)" >IRQ</text>
<circle cx="60.0" cy="880.0" r="2.0" stroke="#0000b2" stroke-width="2.8" fill="#0000b2" />
</g>
<g>
<path d="M 100,880 L 92,894 L 108,894 Z" stroke="#000000" stroke-width="2.8" fill="none"/>
<text text-anchor="end" x="100.0" y="905.75" fill="#808080" style="font-size:18px" transform="rotate(-90,100.0,899.0)" >LDL</text>
<circle cx="100.0" cy="880.0" r="2.0" stroke="#0000b2" stroke-width="2.8" fill="#0000b2" />
</g>
</g>
</svg>