<?xml version="1.0" encoding="UTF-8" standalone="no"?>
<!-- Created with Digital by H.Neemann -->
<!-- created: Sun Jun 05 12:57:34 BST 2022 -->

<svg
   xmlns:svg="http://www.w3.org/2000/svg"
   xmlns="http://www.w3.org/2000/svg"
   width="66.45mm"
   height="28.8mm"
   viewBox="37 -17 443 192">
<g stroke-linecap="square">
<path d="M 260,80 L 280,80" stroke="#0000b2" stroke-width="2.8" fill="none"/>
<path d="M 120,80 L 140,80" stroke="#0000b2" stroke-width="2.8" fill="none"/>
<path d="M 100,160 L 120,160" stroke="#0000b2" stroke-width="2.8" fill="none"/>
<path d="M 400,100 L 420,100" stroke="#0000b2" stroke-width="2.8" fill="none"/>
<path d="M 120,100 L 140,100" stroke="#0000b2" stroke-width="2.8" fill="none"/>
<path d="M 120,40 L 140,40" stroke="#0000b2" stroke-width="2.8" fill="none"/>
<path d="M 260,40 L 280,40" stroke="#0000b2" stroke-width="2.8" fill="none"/>
<path d="M 100,140 L 120,140" stroke="#0000b2" stroke-width="2.8" fill="none"/>
<path d="M 120,60 L 140,60" stroke="#0000b2" stroke-width="2.8" fill="none"/>
<path d="M 340,60 L 360,60 L 380,60 L 380,80" stroke="#0000b2" stroke-width="2.8" fill="none"/>
<path d="M 260,60 L 280,60" stroke="#0000b2" stroke-width="2.8" fill="none"/>
<path d="M 360,40 L 360,60" stroke="#0000b2" stroke-width="2.8" fill="none"/>
<path d="M 380,120 L 380,140" stroke="#0000b2" stroke-width="2.8" fill="none"/>
<path d="M 400,100 L 387,100" stroke="#000000" stroke-width="2.8" fill="none"/>
<g>
<circle cx="360.0" cy="60.0" r="4.0" stroke="#0000b2" stroke-width="2.8" fill="#0000b2" />
</g>
<g>
<path d="M 281,30 L 339,30 L 339,90 L 281,90 Z" stroke="#000000" stroke-width="2.8" fill="none"/>
<text text-anchor="start" x="284.0" y="46.75" fill="#808080" style="font-size:18px">D</text>
<path d="M 281,67 L 288,60 L 281,53" stroke="#000000" stroke-width="1.4" fill="none"/>
<text text-anchor="start" x="291.0" y="66.75" fill="#808080" style="font-size:18px">C</text>
<text text-anchor="start" x="284.0" y="86.75" fill="#808080" style="font-size:18px">en</text>
<text text-anchor="end" x="336.0" y="66.75" fill="#808080" style="font-size:18px">Q</text>
<text text-anchor="middle" x="310.0" y="107.5" fill="#808080" style="font-size:18px">Reg</text>
<circle cx="280.0" cy="40.0" r="2.0" stroke="#0000b2" stroke-width="2.8" fill="#0000b2" />
<circle cx="280.0" cy="60.0" r="2.0" stroke="#0000b2" stroke-width="2.8" fill="#0000b2" />
<circle cx="280.0" cy="80.0" r="2.0" stroke="#0000b2" stroke-width="2.8" fill="#0000b2" />
<circle cx="340.0" cy="60.0" r="2.0" stroke="#b20000" stroke-width="2.8" fill="#b20000" />
</g>
<g>
<path d="M 260,60 L 246,52 L 246,68 Z" stroke="#000000" stroke-width="2.8" fill="none"/>
<text text-anchor="end" x="241.0" y="66.75" fill="#808080" style="font-size:18px">C</text>
<circle cx="260.0" cy="60.0" r="2.0" stroke="#0000b2" stroke-width="2.8" fill="#0000b2" />
</g>
<g>
<path d="M 260,80 L 246,72 L 246,88 Z" stroke="#000000" stroke-width="2.8" fill="none"/>
<text text-anchor="end" x="241.0" y="86.75" fill="#808080" style="font-size:18px">LD</text>
<circle cx="260.0" cy="80.0" r="2.0" stroke="#0000b2" stroke-width="2.8" fill="#0000b2" />
</g>
<g>
<path d="M 360,40 L 368,26 L 352,26 Z" stroke="#000000" stroke-width="2.8" fill="none"/>
<text text-anchor="start" x="360.0" y="27.75" fill="#808080" style="font-size:18px" transform="rotate(-90,360.0,21.0)" >&lt;Q&gt;</text>
<circle cx="360.0" cy="40.0" r="2.0" stroke="#0000b2" stroke-width="2.8" fill="#0000b2" />
</g>
<g>
<path d="M 392,81 L 380,119 L 368,81 Z" stroke="#000000" stroke-width="2.8" fill="none"/>
<circle cx="380.0" cy="80.0" r="2.0" stroke="#0000b2" stroke-width="2.8" fill="#0000b2" />
<circle cx="400.0" cy="100.0" r="2.0" stroke="#0000b2" stroke-width="2.8" fill="#0000b2" />
<circle cx="380.0" cy="120.0" r="2.0" stroke="#b20000" stroke-width="2.8" fill="#b20000" />
</g>
<g>
<path d="M 420,100 L 434,108 L 434,92 Z" stroke="#000000" stroke-width="2.8" fill="none"/>
<text text-anchor="start" x="439.0" y="106.75" fill="#808080" style="font-size:18px">OUT</text>
<circle cx="420.0" cy="100.0" r="2.0" stroke="#0000b2" stroke-width="2.8" fill="#0000b2" />
</g>
<g>
<path d="M 99,30 L 119,30 L 119,50 L 99,50 Z" stroke="#000000" stroke-width="2.8" fill="none"/>
<text text-anchor="end" x="90.0" y="49.0" fill="#000000" style="font-size:24px"><tspan style="font-style:italic;">C</tspan></text>
<path d="M 104,43 L 107,43 L 107,37 L 110,37 L 110,43 L 113,43 L 113,37 L 116,37" stroke="#000000" stroke-width="1.4" fill="none"/>
<circle cx="120.0" cy="40.0" r="2.0" stroke="#b20000" stroke-width="2.8" fill="#b20000" />
</g>
<g>
<path d="M 99,50 L 119,50 L 119,70 L 99,70 Z" stroke="#000000" stroke-width="2.8" fill="none"/>
<circle cx="109.0" cy="60.0" r="4.0" stroke="#000000" stroke-width="1.4" fill="none" />
<text text-anchor="end" x="90.0" y="69.0" fill="#000000" style="font-size:24px"><tspan style="font-style:italic;">D</tspan></text>
<circle cx="120.0" cy="60.0" r="2.0" stroke="#b20000" stroke-width="2.8" fill="#b20000" />
</g>
<g>
<path d="M 99,90 L 119,90 L 119,110 L 99,110 Z" stroke="#000000" stroke-width="2.8" fill="none"/>
<circle cx="109.0" cy="100.0" r="4.0" stroke="#000000" stroke-width="1.4" fill="none" />
<text text-anchor="end" x="90.0" y="109.0" fill="#000000" style="font-size:24px"><tspan style="font-style:italic;">OUT</tspan></text>
<circle cx="120.0" cy="100.0" r="2.0" stroke="#b20000" stroke-width="2.8" fill="#b20000" />
</g>
<g>
<circle cx="131.0" cy="140.0" r="4.0" stroke="#000000" stroke-width="1.4" fill="none" />
<circle cx="131.0" cy="140.0" r="10.0" stroke="#000000" stroke-width="2.8" fill="none" />
<text text-anchor="start" x="150.0" y="149.0" fill="#000000" style="font-size:24px"><tspan style="font-style:italic;">Q</tspan></text>
<circle cx="120.0" cy="140.0" r="2.0" stroke="#0000b2" stroke-width="2.8" fill="#0000b2" />
</g>
<g>
<path d="M 260,40 L 246,32 L 246,48 Z" stroke="#000000" stroke-width="2.8" fill="none"/>
<text text-anchor="end" x="241.0" y="46.75" fill="#808080" style="font-size:18px">D</text>
<circle cx="260.0" cy="40.0" r="2.0" stroke="#0000b2" stroke-width="2.8" fill="#0000b2" />
</g>
<g>
<path d="M 380,140 L 372,154 L 388,154 Z" stroke="#000000" stroke-width="2.8" fill="none"/>
<text text-anchor="end" x="380.0" y="165.75" fill="#808080" style="font-size:18px" transform="rotate(-90,380.0,159.0)" >Q</text>
<circle cx="380.0" cy="140.0" r="2.0" stroke="#0000b2" stroke-width="2.8" fill="#0000b2" />
</g>
<g>
<path d="M 100,140 L 86,132 L 86,148 Z" stroke="#000000" stroke-width="2.8" fill="none"/>
<text text-anchor="end" x="81.0" y="146.75" fill="#808080" style="font-size:18px">Q</text>
<circle cx="100.0" cy="140.0" r="2.0" stroke="#0000b2" stroke-width="2.8" fill="#0000b2" />
</g>
<g>
<path d="M 140,40 L 154,48 L 154,32 Z" stroke="#000000" stroke-width="2.8" fill="none"/>
<text text-anchor="start" x="159.0" y="46.75" fill="#808080" style="font-size:18px">C</text>
<circle cx="140.0" cy="40.0" r="2.0" stroke="#0000b2" stroke-width="2.8" fill="#0000b2" />
</g>
<g>
<path d="M 140,80 L 154,88 L 154,72 Z" stroke="#000000" stroke-width="2.8" fill="none"/>
<text text-anchor="start" x="159.0" y="86.75" fill="#808080" style="font-size:18px">LD</text>
<circle cx="140.0" cy="80.0" r="2.0" stroke="#0000b2" stroke-width="2.8" fill="#0000b2" />
</g>
<g>
<path d="M 140,60 L 154,68 L 154,52 Z" stroke="#000000" stroke-width="2.8" fill="none"/>
<text text-anchor="start" x="159.0" y="66.75" fill="#808080" style="font-size:18px">D</text>
<circle cx="140.0" cy="60.0" r="2.0" stroke="#0000b2" stroke-width="2.8" fill="#0000b2" />
</g>
<g>
<path d="M 140,100 L 154,108 L 154,92 Z" stroke="#000000" stroke-width="2.8" fill="none"/>
<text text-anchor="start" x="159.0" y="106.75" fill="#808080" style="font-size:18px">OUT</text>
<circle cx="140.0" cy="100.0" r="2.0" stroke="#0000b2" stroke-width="2.8" fill="#0000b2" />
</g>
<g>
<circle cx="131.0" cy="160.0" r="4.0" stroke="#000000" stroke-width="1.4" fill="none" />
<circle cx="131.0" cy="160.0" r="10.0" stroke="#000000" stroke-width="2.8" fill="none" />
<text text-anchor="start" x="150.0" y="169.0" fill="#000000" style="font-size:24px"><tspan style="font-style:italic;">&lt;Q&gt;</tspan></text>
<circle cx="120.0" cy="160.0" r="2.0" stroke="#0000b2" stroke-width="2.8" fill="#0000b2" />
</g>
<g>
<path d="M 100,160 L 86,152 L 86,168 Z" stroke="#000000" stroke-width="2.8" fill="none"/>
<text text-anchor="end" x="81.0" y="166.75" fill="#808080" style="font-size:18px">&lt;Q&gt;</text>
<circle cx="100.0" cy="160.0" r="2.0" stroke="#0000b2" stroke-width="2.8" fill="#0000b2" />
</g>
<g>
<path d="M 99,70 L 119,70 L 119,90 L 99,90 Z" stroke="#000000" stroke-width="2.8" fill="none"/>
<circle cx="109.0" cy="80.0" r="4.0" stroke="#000000" stroke-width="1.4" fill="none" />
<text text-anchor="end" x="90.0" y="89.0" fill="#000000" style="font-size:24px"><tspan style="font-style:italic;">LD</tspan></text>
<circle cx="120.0" cy="80.0" r="2.0" stroke="#b20000" stroke-width="2.8" fill="#b20000" />
</g>
</g>
</svg>